<svg width="24" height="24" viewBox="0 0 24 24" fill="none" xmlns="http://www.w3.org/2000/svg">
<circle cx="12" cy="12" r="10" fill="#E84532"/>
<path d="M17 9.62739C17 9.81444 16.9398 9.97344 16.8194 10.1044L12.1484 15.1829L11.271 16.1369C11.1505 16.2679 11.0043 16.3333 10.8323 16.3333C10.6602 16.3333 10.514 16.2679 10.3935 16.1369L9.51613 15.1829L7.18065 12.6437C7.06022 12.5127 7 12.3537 7 12.1667C7 11.9796 7.06022 11.8206 7.18065 11.6897L8.05806 10.7357C8.17849 10.6048 8.32473 10.5393 8.49677 10.5393C8.66882 10.5393 8.81505 10.6048 8.93548 10.7357L10.8323 12.805L15.0645 8.19641C15.1849 8.06547 15.3312 8 15.5032 8C15.6753 8 15.8215 8.06547 15.9419 8.19641L16.8194 9.15039C16.9398 9.28133 17 9.44033 17 9.62739Z" fill="white"/>
</svg>
