<svg width="90" height="90" viewBox="0 0 90 90" fill="none" xmlns="http://www.w3.org/2000/svg">
<path d="M0 90H89.8232V0H0V90Z" fill="#E55A00"/>
<path fill-rule="evenodd" clip-rule="evenodd" d="M80.8847 0.00390625L64.0831 25.7814L64.0984 25.77L89.8074 0.00390625H80.8847Z" fill="white"/>
<path fill-rule="evenodd" clip-rule="evenodd" d="M36.2949 61.7049C36.2949 62.4997 36.9549 62.8967 38.5479 62.8967C40.1359 62.8967 40.7974 62.4997 40.7974 61.7049V39.0758C40.7974 33.1697 43.1134 30.7158 49.5406 30.7158H50.7332C51.6604 30.7158 51.9887 29.9178 51.9887 28.6549C51.9887 27.1309 51.1287 26.7986 48.6117 26.7986C41.4576 26.7986 36.2949 29.9826 36.2949 38.6756V61.7049ZM56.4946 61.7049C56.4946 62.4997 57.1562 62.8967 58.7467 62.8967C60.3339 62.8967 60.9964 62.4997 60.9964 61.7049V27.9936C60.9964 27.1964 60.3339 26.7986 58.7467 26.7986C57.1562 26.7986 56.4946 27.1964 56.4946 27.9936V61.7049ZM69.1431 43.5872L81.9252 29.4529C82.3902 28.9233 82.7179 28.5232 82.7179 28.1263C82.7179 27.3283 80.9976 26.5254 79.8726 26.5254C79.0768 26.5254 78.4155 27.1309 77.8191 27.7931L63.8424 43.3219C63.1849 44.0512 63.0492 44.449 63.0492 44.8493C63.0492 45.2463 63.1849 45.6441 63.8424 46.3734L77.8191 61.9013C78.4155 62.5644 79.0768 63.1699 79.8726 63.1699C80.9976 63.1699 82.7179 62.3671 82.7179 61.5683C82.7179 61.1722 82.3902 60.7752 81.9252 60.2456L69.1431 46.1088C68.5476 45.4468 68.2168 45.1136 68.2168 44.8493C68.2168 44.5817 68.5476 44.2518 69.1431 43.5872Z" fill="white"/>
<path fill-rule="evenodd" clip-rule="evenodd" d="M31.3246 59.2883V46.3554C31.3246 45.5485 30.6636 45.1459 29.0749 45.1459C27.4836 45.1459 26.8219 45.5485 26.8219 46.3554V57.144C26.8219 58.8185 26.0941 59.4879 22.7162 59.4879C15.8939 59.4879 11.6558 54.2618 11.6558 45.3489C11.6558 36.0294 16.8862 30.7361 25.8294 30.7361H28.4107C29.3395 30.7361 29.6711 29.9324 29.6711 28.6614C29.6711 27.1187 28.8109 26.7832 26.2934 26.7832H25.2332C14.8367 26.7832 6.82233 32.5455 6.82233 45.4168C6.82233 57.7471 13.841 63.2442 22.6484 63.2442C29.6711 63.2442 31.3246 61.2982 31.3246 59.2883Z" fill="white"/>
<path fill-rule="evenodd" clip-rule="evenodd" d="M44.9093 42.5371C46.269 42.5371 47.3736 43.6399 47.3736 45.0055C47.3736 46.3686 46.269 47.4754 44.9093 47.4754C43.5497 47.4754 42.445 46.3686 42.445 45.0055C42.445 43.6399 43.5497 42.5371 44.9093 42.5371Z" fill="white"/>
</svg>
