<svg width="69" height="100" viewBox="0 0 69 100" fill="none" xmlns="http://www.w3.org/2000/svg">
<path d="M26.591 77.7146C22.8308 77.7169 19.7844 80.7669 19.786 84.5267C19.7876 88.2866 22.8367 91.3343 26.5969 91.3336C30.357 91.3328 33.4048 88.2843 33.4048 84.5237C33.4024 80.7623 30.3525 77.7146 26.591 77.7146ZM29.0429 86.976C27.8769 88.1457 26.0463 88.329 24.6716 87.4131C23.2968 86.4972 22.761 84.7373 23.3919 83.2101C24.0228 81.6836 25.6447 80.8154 27.2651 81.1373C28.8854 81.4586 30.0527 82.8805 30.0526 84.5328C30.0535 85.4487 29.6903 86.3275 29.0429 86.976ZM41.4555 77.7146C40.2364 77.7146 39.0402 78.0457 37.994 78.6714C37.994 76.5343 37.994 74.6157 37.994 73.7109C37.994 71.0886 34.6373 71.3508 34.6373 71.3508V84.5373C34.6398 88.2972 37.6895 91.3434 41.4497 91.3419C45.2099 91.3404 48.257 88.2911 48.2563 84.5313C48.2554 80.7707 45.207 77.7229 41.4468 77.7229L41.4555 77.7146ZM43.9031 86.976C42.7384 88.1434 40.9111 88.326 39.5387 87.4116C38.1663 86.4972 37.6307 84.7404 38.2596 83.2161C38.8885 81.6911 40.5067 80.823 42.1246 81.1427C43.7426 81.4616 44.9099 82.879 44.9127 84.5283C44.9177 85.4464 44.5539 86.3283 43.9031 86.976ZM56.3026 77.7101C53.4325 77.7108 50.8711 79.5116 49.8985 82.2116C48.9258 84.9123 49.7507 87.932 51.9608 89.7631C54.171 91.5942 57.292 91.8426 59.7641 90.3851V91.1889H63.1164V84.3533C63.0262 80.6563 60.0011 77.7063 56.3026 77.7101ZM58.7413 86.976C57.5758 88.1389 55.7512 88.3169 54.3826 87.4017C53.0141 86.4858 52.4825 84.7313 53.1127 83.2101C53.7429 81.6889 55.3595 80.8245 56.9746 81.1449C58.5897 81.4654 59.7538 82.8813 59.7554 84.5283C59.7558 85.4464 59.391 86.3267 58.7413 86.976ZM13.8682 84.6025C13.867 83.2669 13.4651 81.9616 12.7143 80.857C14.1042 79.9828 13.8376 77.907 13.8376 77.907H7.15484C3.44357 77.907 0.434998 80.9154 0.434998 84.6267C0.434998 88.3381 3.44357 91.3464 7.15484 91.3464H8.029C9.14589 91.3495 10.1279 92.0866 10.4423 93.1578C10.7569 94.2298 10.3289 95.3805 9.39074 95.9866C8.45248 96.5926 7.22742 96.5093 6.37993 95.782C5.53245 95.054 5.26445 93.8563 5.72127 92.8366L2.70991 91.4775C1.47158 94.2207 2.52157 97.4563 5.13495 98.9495C7.74832 100.443 11.0687 99.7048 12.8036 97.2457C14.5385 94.7858 14.1195 91.4101 11.8358 89.4495C13.1451 88.1783 13.8791 86.4275 13.8682 84.6025ZM4.73789 87.0154C3.77126 86.051 3.47323 84.6025 3.98048 83.3351C4.48773 82.0676 5.70241 81.2245 7.06743 81.1934H7.32967C8.85226 81.2707 10.1391 82.348 10.4826 83.8336C10.8263 85.3184 10.1432 86.8517 8.80915 87.5896C7.47508 88.3275 5.81345 88.0911 4.73789 87.0108V87.0154ZM64.5368 71.4251V91.3116H67.8935C67.8935 91.3116 67.8935 76.4078 67.8935 73.7896C67.8935 71.1716 64.5368 71.4251 64.5368 71.4251ZM15.1618 71.4251V91.3116H18.5185V73.7852C18.5185 71.1585 15.1618 71.4251 15.1618 71.4251ZM41.5473 24.9347C39.5822 22.9608 36.9517 21.7904 34.1697 21.6523H33.2956C28.147 21.7788 23.7388 25.3788 22.5863 30.3984C21.4338 35.4179 23.8301 40.5803 28.4079 42.94C32.9857 45.2996 38.5807 44.2564 42.0004 40.4055C45.4202 36.5546 45.7951 30.8755 42.911 26.6086C42.5099 26.0092 42.0533 25.4487 41.5473 24.9347Z" fill="#0059A6"/>
<path d="M46.805 0H21.5296C9.89737 0 0.46759 9.42977 0.46759 21.062V46.3286C0.468395 56.4123 7.61472 65.0814 17.5131 67.0061C17.2928 65.8301 17.1815 64.6362 17.1809 63.4397C17.1809 63.1337 17.1809 62.8278 17.2071 62.5218C17.2071 62.4257 17.2071 62.3339 17.2071 62.2377C17.2071 62.0134 17.2246 61.7905 17.2596 61.5691C17.2596 61.4233 17.2756 61.2776 17.3076 61.132C17.3295 60.9353 17.3557 60.7386 17.3863 60.5464C17.4169 60.354 17.4431 60.2055 17.4737 60.035L17.5218 59.7814C17.6442 59.1492 17.7899 58.5271 17.9588 57.9152C18.1965 57.0954 18.4885 56.2923 18.833 55.5114L25.0699 58.3305L28.7849 60.0087C28.3028 61.085 28.0555 62.2517 28.0593 63.4309C28.0588 64.8105 28.3981 66.169 29.0471 67.3864H43.8461C45.589 64.1436 44.9993 60.1415 42.395 57.5393C42.2334 57.382 42.0672 57.2334 41.8924 57.1023C41.7176 56.9711 41.5603 56.8357 41.3854 56.7089C39.9622 55.6651 38.2421 55.1045 36.4772 55.1092C36.4772 55.1092 34.5629 55.1092 33.6057 55.1092C21.341 55.1092 11.3985 45.1667 11.3985 32.9021C11.3985 20.6374 21.341 10.6949 33.6057 10.6949C33.8024 10.6949 34.0078 10.6949 34.2001 10.6949H55.6861C55.6861 10.6949 56.5603 17.5961 51.9842 20.437C52.2989 20.9033 52.5903 21.3811 52.8584 21.8706C57.8794 30.6701 56.3099 41.7521 49.0427 48.8112C49.4798 49.1739 49.8601 49.5542 50.249 49.9476L50.4457 50.1442C50.5899 50.2972 50.7298 50.4545 50.8828 50.6119L51.1232 50.8785C51.2499 51.0271 51.3723 51.1801 51.499 51.3155L51.7482 51.6259C51.8618 51.7745 51.9755 51.9274 52.0847 52.063L52.3339 52.4082C52.4387 52.5568 52.5393 52.7098 52.6398 52.8453L52.8802 53.2211C52.9763 53.3741 53.0637 53.5271 53.1556 53.6582L53.3828 54.0603C53.4659 54.2133 53.5489 54.3663 53.6275 54.5236C53.7062 54.6809 53.7718 54.8077 53.8417 54.9607C53.9116 55.1136 53.9903 55.271 54.0602 55.4239C54.1302 55.5769 54.1914 55.7255 54.2569 55.861C54.3224 55.9965 54.3881 56.1714 54.4493 56.3286C54.5104 56.486 54.5672 56.6433 54.6284 56.8051C54.6896 56.9668 54.7421 57.1154 54.7945 57.2727C54.847 57.4301 54.8994 57.6049 54.9518 57.771C55.0043 57.937 55.0437 58.0813 55.0874 58.2342C55.1311 58.3873 55.1791 58.5839 55.2228 58.7631C55.2665 58.9423 55.2971 59.0691 55.3321 59.222C55.3671 59.375 55.4064 59.5936 55.4414 59.7814C55.4763 59.9694 55.4982 60.0786 55.5244 60.2186C55.5506 60.3584 55.5812 60.6206 55.6074 60.8217C55.6337 61.0227 55.6468 61.1014 55.6643 61.2587C55.6905 61.486 55.7036 61.7177 55.7211 61.9493C55.7211 62.0673 55.7211 62.1853 55.7473 62.3033C55.7677 62.653 55.7779 63.0055 55.7779 63.361C55.7773 64.0296 55.7423 64.6977 55.673 65.3627C63.0865 61.9215 67.8399 54.502 67.8671 46.3286V21.062C67.8671 9.42977 58.4372 0 46.805 0Z" fill="#0059A6"/>
</svg>
