<svg width="23" height="22" viewBox="0 0 23 22" fill="none" xmlns="http://www.w3.org/2000/svg">
<path d="M1.64343 20.1195C8.0936 20.1195 14.4217 20.1195 20.8312 20.1195C20.5666 17.1895 19.2237 14.9513 16.9855 13.2014C16.6599 12.9572 16.314 12.7537 15.9681 12.5299C15.2559 12.0619 14.6048 11.9805 13.7299 12.3671C10.8202 13.6897 7.46282 12.5503 5.77398 9.783C4.10548 7.09713 4.69556 3.577 7.15761 1.50156C9.59932 -0.553544 13.1194 -0.492502 15.5408 1.64399C17.9011 3.71944 18.3894 7.19887 16.6803 9.86439C16.5175 10.1289 16.3343 10.3731 16.1309 10.6986C16.3547 10.8411 16.5582 11.0039 16.782 11.1259C20.2818 13.2014 22.1741 16.2739 22.52 20.3027C22.6217 21.4625 22.3369 21.7474 21.1567 21.7474C14.5845 21.7474 7.99186 21.7474 1.41961 21.7474C0.137713 21.7474 -0.0657621 21.5439 0.015628 20.262C0.219103 17.3319 1.37891 14.8292 3.47471 12.7944C3.90201 12.3671 4.4107 11.9602 4.93973 12.5503C5.44842 13.0996 5.04147 13.5269 4.61417 13.9339C2.90498 15.6024 1.90795 17.6168 1.64343 20.1195ZM16.0902 6.46635C16.0902 3.82117 13.8926 1.64399 11.2271 1.66434C8.60229 1.68468 6.4658 3.82117 6.44545 6.44601C6.4251 9.11153 8.62263 11.3498 11.2475 11.3294C13.9333 11.2887 16.0902 9.11153 16.0902 6.46635Z" fill="#9D0080"/>
</svg>
