<svg width="23" height="23" viewBox="0 0 23 23" fill="none" xmlns="http://www.w3.org/2000/svg">
<path d="M11.251 18.202C13.7334 15.6382 16.1751 13.1152 17.3756 9.69677C18.3726 6.86846 16.6431 3.42973 13.7537 2.14784C10.8237 0.865941 7.28321 1.98505 5.75715 4.81336C5.24846 5.729 5.06533 6.84812 4.84151 7.88584C4.71942 8.45557 4.67873 9.0253 3.94622 9.00495C3.19336 8.96426 3.19336 8.37418 3.19336 7.80445C3.23405 3.91807 6.53035 0.397948 10.4574 0.0316925C14.5269 -0.334563 18.2912 2.51409 19.1051 6.48186C19.4917 8.33348 19.1458 10.0427 18.3116 11.6908C16.7245 14.8243 14.4048 17.3678 11.9021 19.7891C11.4545 20.2164 11.0272 20.2164 10.5592 19.8095C8.11746 17.5916 5.87923 15.1906 4.33282 12.2199C4.25143 12.0774 4.109 11.9146 4.12935 11.7722C4.17004 11.3449 4.14969 10.7548 4.41421 10.5514C4.94325 10.1648 5.32985 10.5921 5.57402 11.1007C6.85591 13.7256 8.78893 15.8621 10.8644 17.8765C10.9661 17.9782 11.0679 18.0596 11.251 18.202Z" fill="#9D0080"/>
<path d="M2.15563 20.9082C8.25989 20.9082 14.1607 20.9082 20.2446 20.9082C19.5528 19.6874 18.922 18.5683 18.3116 17.4695C18.1488 17.1846 17.8639 16.8998 17.8436 16.5742C17.8029 16.208 17.986 15.8214 18.0674 15.4348C18.4337 15.5568 18.983 15.5365 19.1662 15.801C19.7969 16.7166 20.3056 17.7137 20.8754 18.6904C21.3637 19.545 21.8724 20.3792 22.32 21.2541C22.6863 21.946 22.4218 22.4343 21.6486 22.5564C21.384 22.5971 21.0992 22.5767 20.8347 22.5767C14.4048 22.5767 7.95467 22.5767 1.52485 22.5767C-0.10295 22.5767 -0.367468 22.1291 0.446434 20.6844C1.30103 19.1787 2.15563 17.6933 3.03057 16.1876C3.31544 15.6993 3.6003 15.0278 4.31246 15.3941C5.08567 15.7807 4.76011 16.3911 4.43455 16.9405C3.70204 18.202 2.98988 19.4636 2.15563 20.9082Z" fill="#9D0080"/>
<path d="M11.2711 11.2432C9.46015 11.2636 8.05617 9.87993 8.01548 8.04865C7.97478 6.29876 9.4398 4.83374 11.2507 4.83374C13.021 4.83374 14.4656 6.27841 14.4453 8.08935C14.425 9.83923 13.021 11.2432 11.2711 11.2432ZM12.8175 8.04865C12.8175 7.13301 12.1053 6.46154 11.1897 6.48189C10.2944 6.50224 9.56189 7.27544 9.60258 8.13004C9.64328 8.96429 10.3554 9.63576 11.21 9.6561C12.1257 9.63576 12.8378 8.94394 12.8175 8.04865Z" fill="#9D0080"/>
</svg>
