<svg width="23" height="18" viewBox="0 0 23 18" fill="none" xmlns="http://www.w3.org/2000/svg">
<path d="M1.62943 16.0762C8.09995 16.0762 14.4891 16.0762 20.9189 16.0762C20.9189 11.2742 20.9189 6.53319 20.9189 1.62943C20.4712 1.62943 20.0439 1.62943 19.6166 1.62943C13.6548 1.62943 7.69299 1.62943 1.71082 1.62943C1.4463 1.62943 1.12074 1.71082 0.917266 1.60908C0.591706 1.42596 0.327188 1.10039 0.0423228 0.835877C0.347536 0.571359 0.612054 0.266146 0.937614 0.0423228C1.03935 -0.0390674 1.26317 0.0219755 1.4463 0.0219755C7.97786 0.0219755 14.5298 0.0219755 21.0613 0.0219755C22.4043 0.0219755 22.567 0.205103 22.567 1.56839C22.567 6.49249 22.567 11.3962 22.567 16.3203C22.567 17.5615 22.3839 17.7447 21.1834 17.765C14.5705 17.765 7.95751 17.765 1.36491 17.765C0.205103 17.765 0.0219755 17.5819 0.0219755 16.3814C0.0219755 12.5154 0.0219755 8.64933 0.0219755 4.7833C0.0219755 4.57982 -0.0390674 4.33565 0.0423228 4.19322C0.266146 3.86766 0.571359 3.58279 0.835877 3.29793C1.10039 3.58279 1.40561 3.86766 1.62943 4.19322C1.73117 4.356 1.64978 4.66121 1.64978 4.88504C1.64978 8.24238 1.64978 11.5997 1.64978 14.9571C1.62943 15.303 1.62943 15.6692 1.62943 16.0762Z" fill="#9D0080"/>
<path d="M11.2334 9.48364C13.0444 7.65236 14.6925 5.98386 16.361 4.29502C16.6052 4.05085 16.8086 3.72529 17.0935 3.6032C17.4394 3.46077 17.8464 3.52181 18.233 3.48112C18.2126 3.88807 18.3551 4.43745 18.1516 4.70197C17.4394 5.55656 16.6052 6.30942 15.8116 7.10298C14.5704 8.34418 13.3089 9.56503 12.0677 10.8469C11.4776 11.4573 11.0096 11.4167 10.4399 10.8266C8.46616 8.83252 6.4721 6.83846 4.47804 4.86475C4.09144 4.47815 3.78623 4.05085 4.23387 3.54216C4.74256 2.99278 5.19021 3.31834 5.6175 3.72529C7.48948 5.63795 9.32076 7.53028 11.2334 9.48364Z" fill="#9D0080"/>
<path d="M15.2419 10.4603C15.4861 10.5621 15.6895 10.5824 15.7913 10.7045C16.6459 11.5591 17.5412 12.3933 18.3347 13.2886C18.4975 13.4718 18.4364 14.1025 18.2533 14.2246C18.0092 14.4077 17.4191 14.4484 17.2359 14.2857C16.3407 13.5125 15.5268 12.6579 14.7332 11.8033C14.5704 11.6405 14.5501 11.2132 14.6315 10.9894C14.7129 10.7452 15.0384 10.6028 15.2419 10.4603Z" fill="#9D0080"/>
<path d="M8.05901 11.2741C8.07936 11.7625 5.37314 14.5094 4.86445 14.5094C4.23368 14.5094 3.78603 13.7769 4.21333 13.2886C5.00688 12.3729 5.88183 11.498 6.77712 10.7044C7.26546 10.2568 8.01832 10.6637 8.05901 11.2741Z" fill="#9D0080"/>
</svg>
