<svg width="23" height="23" viewBox="0 0 23 23" fill="none" xmlns="http://www.w3.org/2000/svg">
<path d="M8.03921 8.84671C9.97223 10.7797 11.7832 12.55 13.6551 14.4219C13.9807 14.1167 14.408 13.6894 14.8353 13.2825C16.2393 11.9192 18.0705 11.9192 19.4745 13.2621C20.207 13.9743 20.9192 14.6864 21.6314 15.419C22.8726 16.7212 22.9336 18.3083 21.8348 19.753C20.0443 22.0929 17.0532 23.0696 14.001 22.2354C10.603 21.3197 7.95782 19.2036 5.59751 16.7415C4.17318 15.2562 2.99302 13.547 1.77217 11.8988C1.40592 11.4105 0.79549 10.678 1.65009 10.1489C2.52503 9.59956 2.7692 10.5152 3.11511 11.0646C5.41438 14.7068 8.36477 17.6979 12.1494 19.7937C13.8179 20.7093 15.5881 21.2384 17.5212 20.75C18.8031 20.4448 19.8001 19.7326 20.5936 18.7153C21.1227 18.0234 21.143 17.3113 20.5733 16.6805C19.8204 15.8463 19.0472 15.0324 18.213 14.2998C17.5008 13.6691 16.7073 13.7505 16.0154 14.4016C15.4457 14.9306 14.8963 15.48 14.3673 16.0497C13.8179 16.6398 13.3092 16.6602 12.7395 16.0701C10.6844 13.9946 8.62929 11.9395 6.55384 9.88443C5.98411 9.3147 5.92307 8.80601 6.53349 8.23628C7.08288 7.72759 7.61191 7.19856 8.1206 6.64917C8.9345 5.77423 8.91416 5.00102 8.10026 4.16677C7.44913 3.47496 6.77767 2.80349 6.0655 2.17272C5.2923 1.46055 4.62083 1.4402 3.80693 2.07098C2.46399 3.1087 1.77217 4.49233 1.69078 6.16083C1.67043 6.50674 1.79252 6.873 1.67043 7.15786C1.54835 7.48342 1.22279 7.74794 0.978618 8.0328C0.693753 7.78863 0.246107 7.60551 0.14437 7.32064C-0.567794 4.96033 1.46696 1.07395 3.78658 0.219353C5.00743 -0.228293 6.12654 0.0158771 7.08288 0.890821C7.87643 1.62333 8.64964 2.39654 9.4025 3.19009C10.6233 4.47199 10.6233 6.28292 9.42284 7.60551C8.99555 8.0735 8.46651 8.4601 8.03921 8.84671Z" fill="#9D0080"/>
</svg>
