<svg width="81" height="75" viewBox="0 0 81 75" fill="none" xmlns="http://www.w3.org/2000/svg">
<g clip-path="url(#clip0_504_5009)">
<path d="M44.0789 0H0V75H44.0789V0Z" fill="#3546A8"/>
<path d="M32.0446 28.3481L31.7119 28.6369C32.3688 28.8456 33.0808 28.5547 33.4036 27.9458L33.4397 27.4688C32.8569 27.6029 32.2819 27.8968 32.0446 28.3481Z" fill="#3C4492"/>
<path d="M36.0259 30.6767L35.4458 30.6406C35.4146 31.1656 35.6887 31.6615 36.1497 31.9146L36.5829 32.0126C37.176 31.4968 36.3844 30.981 36.0259 30.6767Z" fill="#3C4492"/>
<path d="M30.2081 18.4777L29.7775 18.7897C30.5279 19.0794 31.3734 18.7271 31.6961 17.9902L31.8379 17.4023C31.139 17.5622 30.5975 17.557 30.2081 18.4777Z" fill="#3C4492"/>
<path d="M30.2623 21.4333L30.1334 20.9512C29.4345 21.111 28.9163 21.3741 28.6326 21.9156V22.2972C29.4887 22.617 29.9658 21.8151 30.2623 21.4333Z" fill="#3C4492"/>
<path d="M28.0781 25.7935L28.3695 25.9715C29.3314 26.2912 29.4011 25.4996 29.6331 25.1797L30.0045 24.8497C29.1122 24.6717 28.3154 25.3422 28.0781 25.7935Z" fill="#3C4492"/>
<path d="M33.7645 11.8912L33.4164 12.0588C33.5118 12.6828 34.9043 13.3817 35.255 12.8814L35.3066 12.2883C34.8651 11.9536 34.3075 11.8104 33.7593 11.8912" fill="#3C4492"/>
<path d="M38.5994 10.2901L38.0629 10.125C37.7741 10.5402 37.6219 10.8574 37.9263 11.5742L38.2047 12.1493C38.8391 11.5201 39.4658 10.927 38.5993 10.3003" fill="#3C4492"/>
<path d="M51.8055 23.3638C52.2232 23.3045 52.757 23.289 52.7003 22.6159C52.6771 22.3297 52.5842 22.1002 52.3625 22.0255C51.0731 21.5535 49.7167 22.2627 49.1262 22.6676C48.8967 22.8248 50.6476 23.632 51.8055 23.3638Z" fill="#0A9FA1"/>
<path fill-rule="evenodd" clip-rule="evenodd" d="M78.9415 0.0300267H42.125C42.4738 2.48486 42.7053 4.28652 42.9539 6.71157L42.9502 6.71144L42.9544 6.75138C42.9009 6.76914 42.2385 7.00144 42.3028 7.57802C42.3802 8.23559 42.6639 8.39295 42.6639 8.39295L42.3493 8.54763C42.3493 8.54763 42.0011 8.0319 42.0011 8.05256C42.0011 7.98434 42.0048 7.91216 42.0085 7.83881V7.83874C42.0328 7.35703 42.0597 6.82644 41.0728 7.07263C40.8565 7.55749 41.0656 7.83388 41.2546 8.08368C41.4103 8.28953 41.5524 8.4773 41.4312 8.74881C40.8181 8.7842 40.7355 8.54598 40.6764 8.37578C40.6192 8.21092 40.5841 8.10986 40.1109 8.38263C40.1754 8.09894 39.9717 7.35111 39.67 7.38986C39.6546 7.4396 39.6368 7.49328 39.618 7.54999C39.4748 7.98085 39.2738 8.58545 39.6932 8.97059C39.4552 9.06184 39.1864 9.0142 38.9943 8.84684C38.9411 8.76651 38.9732 8.66434 39.0146 8.53315C39.0832 8.31486 39.1773 8.01624 38.9453 7.60388C38.3618 7.85914 38.3677 8.28144 38.3732 8.68499C38.3783 9.0519 38.3832 9.40335 37.9448 9.5998C37.4541 9.53703 37.579 9.29782 37.7442 8.98157C37.9184 8.64809 38.1373 8.22901 37.7256 7.84111C36.8204 8.05256 36.4698 9.0144 36.8411 9.58177C36.8298 9.85605 36.7104 10.0558 36.5937 10.2512C36.4965 10.414 36.4011 10.5736 36.3717 10.7706C35.9178 10.6983 35.7245 10.5308 35.6729 10.3554C35.6521 10.243 35.7476 10.1496 35.8546 10.0451C36.0518 9.85256 36.2878 9.62203 35.905 9.16401C35.4227 9.24157 35.3423 9.67776 35.2855 9.98611C35.2292 10.2926 35.196 10.4728 34.8142 10.0485C34.7317 9.6823 34.4892 9.35223 34.2984 9.31361C33.9322 9.57144 33.7595 9.99953 33.9967 10.3683L34.3835 10.8841C34.3588 10.8776 34.401 10.9505 34.4427 11.0223C34.4835 11.0929 34.5238 11.1624 34.4996 11.1548C33.8626 10.6391 33.0116 10.2755 32.4701 10.8608C32.5319 11.3445 32.9055 11.4247 33.5003 11.5525C33.5747 11.5684 33.6525 11.5851 33.7336 11.6035C33.0235 11.6689 32.7574 11.8825 32.535 12.0608C32.4683 12.1143 32.4056 12.1647 32.3359 12.2069C32.2289 11.5949 31.5291 11.4923 30.8677 11.3953L30.8455 11.392C30.655 11.441 30.4977 11.3942 30.3664 11.3552C30.2418 11.3182 30.1405 11.288 30.0563 11.3533C30.3761 12.0891 31.0414 12.6172 31.8305 12.7613C32.0668 12.7633 32.2992 12.7018 32.5036 12.5833C32.917 12.7793 32.9439 12.8637 33.0165 13.0919C33.0309 13.137 33.0471 13.1878 33.0684 13.2461C32.673 13.426 32.3229 13.3795 31.9675 13.3322C31.6759 13.2934 31.3809 13.2541 31.0544 13.3389C31.0544 13.3647 30.8661 13.3647 30.8558 13.3157C30.8511 13.2932 30.8327 13.2543 30.8155 13.218C30.7953 13.1751 30.7766 13.1357 30.7836 13.1301C30.4742 12.5241 29.6386 12.7613 29.1977 12.8903C29.1332 13.3751 29.6154 13.7645 30.01 13.9218C30.5438 14.1177 30.7165 13.9578 30.7165 13.9578L30.9357 13.7567C31.1238 14.4549 31.3577 14.616 31.6813 14.8387H31.6814C31.757 14.8908 31.8375 14.9462 31.9234 15.0126C31.824 15.0493 31.7371 15.0848 31.6567 15.1177C31.3361 15.2486 31.1173 15.338 30.6185 15.2988C29.9145 14.1926 27.8025 13.7077 27.885 14.2287C28.1867 15.3736 29.7443 15.6495 29.7443 15.6495C29.7443 15.6495 28.9269 15.9564 29.0686 16.2246C29.1244 16.3299 29.3227 16.4198 29.5336 16.5154C29.8596 16.6631 30.2157 16.8245 30.1234 17.0782C29.0094 16.5624 28.7927 16.7816 29.5509 17.7718C29.0033 17.799 28.8475 17.459 28.6944 17.1247C28.5856 16.8875 28.4782 16.6532 28.2332 16.5547C27.8052 16.8744 28.0604 17.5475 28.0604 17.5475C28.0027 17.5009 27.92 17.3971 27.8207 17.2726C27.5516 16.9349 27.161 16.4448 26.82 16.5314C26.6678 16.6501 26.6678 17.1684 27.0392 17.5114C26.9313 17.5353 26.8084 17.5499 26.682 17.5648C26.2766 17.6129 25.8363 17.6651 25.7498 18.0426C26.4821 18.6124 27.2584 18.6099 28.4085 18.463C28.554 18.4568 28.698 18.4307 28.8366 18.3855C29.0557 18.3108 29.3807 18.6228 29.3807 18.6228C29.15 18.6755 29.0536 18.7384 28.9443 18.8098C28.786 18.9132 28.6007 19.0342 27.9417 19.1669C27.212 19.5228 26.6369 19.9844 26.6369 20.7142C27.0907 20.9411 27.6426 21.1603 27.9417 20.7142C28.2515 20.2586 28.3113 20.3258 28.4011 20.4267C28.4526 20.4846 28.514 20.5536 28.638 20.5414L29.0145 20.6626C28.8626 21.0457 28.3673 21.2339 27.947 21.3938C27.5184 21.5568 27.1678 21.6901 27.3384 21.97C27.5886 22.3555 27.8715 22.7187 28.1842 23.0557C28.1842 23.0557 26.9825 22.4368 26.6369 22.8777C26.2914 23.3187 27.0315 23.953 28.2925 24.2418C28.1634 24.3191 27.9369 24.3501 27.7075 24.3814C27.1714 24.4547 26.6199 24.5301 27.261 25.2037C26.1702 25.673 26.526 26.0032 27.408 25.7658L27.8257 25.8122C27.7661 25.8546 27.6789 25.9067 27.5807 25.9654C27.2545 26.1605 26.8074 26.4278 26.851 26.6478C26.8755 26.8485 27.1345 26.8099 27.3934 26.7712C27.6232 26.737 27.8531 26.7026 27.9186 26.836C27.9619 27.1225 27.737 27.2944 27.5826 27.4124C27.5159 27.4633 27.4625 27.5043 27.4492 27.54C27.7496 27.7328 27.9901 27.6099 28.2201 27.4924C28.4701 27.3647 28.7078 27.2432 28.9965 27.54C28.909 27.7088 28.709 27.796 28.5145 27.8807C28.2277 28.0057 27.9529 28.1254 28.0682 28.4941C28.2421 28.6239 28.4702 28.661 28.6978 28.698C28.9227 28.7345 29.1472 28.7709 29.3188 28.8964C29.3188 28.8964 28.8598 29.7964 29.0971 29.9151C29.4496 30.0977 29.7867 29.7446 30.0147 29.5057C30.1086 29.4074 30.1839 29.3285 30.2343 29.3142C30.1676 29.8586 30.3761 30.0209 30.5495 30.1559C30.7046 30.2766 30.8317 30.3755 30.7088 30.7067C30.7088 30.7358 30.7086 30.7658 30.7083 30.7964C30.7057 31.1619 30.7024 31.6197 31.0569 31.8053C31.846 31.5474 31.9208 30.9233 31.9027 29.9743C31.9027 29.6443 32.8105 30.191 32.8105 30.191C33.0665 30.4007 32.8878 30.5871 32.6633 30.8213C32.3992 31.0968 32.0717 31.4385 32.3128 31.9626C33.0361 32.0653 33.3479 31.7531 33.6732 31.4273C33.9197 31.1806 34.1739 30.926 34.6207 30.8382C34.9417 31.0656 34.7083 31.3947 34.493 31.6985C34.4055 31.8219 34.3209 31.9411 34.2778 32.0476C34.0684 32.1669 33.8445 32.2012 33.6164 32.2361C33.1395 32.3091 32.6446 32.3849 32.2277 33.2468C33.0309 33.5803 33.4406 33.3597 33.743 33.1969C33.7727 33.181 33.8012 33.1656 33.829 33.1514C33.9585 33.0563 34.0234 32.9837 34.0759 32.925C34.1375 32.8562 34.1819 32.8064 34.2932 32.762C34.2975 32.8339 34.2973 32.9181 34.297 33.0075C34.2961 33.3536 34.295 33.7798 34.5511 33.8966C34.7563 33.8801 34.8275 33.822 34.9393 33.7305L34.9394 33.7304C34.9849 33.6932 35.0372 33.6504 35.1081 33.6026C35.2255 33.7258 35.1516 33.9303 35.0747 34.1432C34.9826 34.3981 34.8861 34.6653 35.1081 34.8198C35.3282 34.7768 35.5115 34.6254 35.5955 34.4176C35.7413 34.659 36.0436 34.755 36.3021 34.6418C36.4284 34.3221 36.4594 33.5846 36.0442 33.3216C36.1466 33.1973 36.3285 33.2632 36.508 33.3282C36.6677 33.3859 36.8253 33.443 36.9236 33.3654C37.1002 33.5853 37.0163 33.8969 36.9326 34.2082C36.8317 34.5832 36.7309 34.9577 37.0861 35.1705C37.4238 35.1385 37.5713 34.9387 37.7332 34.7193C37.8717 34.5316 38.0207 34.3297 38.3084 34.206C38.2706 34.4333 38.3359 34.6391 38.3968 34.8311C38.5107 35.1903 38.6096 35.5019 37.9912 35.8178C37.9912 36.0824 38.1919 36.2045 38.3865 36.323C38.6602 36.4897 38.9217 36.6489 38.5946 37.1871C38.7814 37.5051 39.0296 37.4299 39.2598 37.3603C39.2965 37.3491 39.3327 37.3382 39.3682 37.3289L39.9253 36.692C39.7555 37.3235 39.737 37.986 39.8711 38.626C39.8075 38.7857 39.8136 38.9521 39.8199 39.1186C39.8326 39.4578 39.8453 39.7976 39.2676 40.083C39.2342 40.2536 39.2053 40.4246 39.1767 40.5946C39.0028 41.6271 38.835 42.6234 37.6482 43.2832C37.2575 44.036 35.8146 44.208 34.3423 44.3835C32.8992 44.5555 31.428 44.7308 30.8919 45.4597C31.1498 45.7176 33.6589 45.6428 33.9865 45.5422C34.2655 45.4042 34.5071 45.4928 34.76 45.5855C34.9371 45.6503 35.1198 45.7173 35.3248 45.7099C35.6911 45.7099 36.0813 45.6691 36.4721 45.6281C37.2557 45.5461 38.0423 45.4638 38.6463 45.7099C39.4223 45.7021 40.1179 45.7149 40.8002 45.7274H40.8005C41.2517 45.7357 41.6971 45.7439 42.1559 45.746L42.2617 45.0678C44.2194 32.4167 44.3244 19.516 42.9544 6.75138L42.9578 6.75026L42.9539 6.71157C43.8013 6.74256 43.8469 7.6717 43.3602 8.32065C43.4977 8.96039 43.7003 8.53328 43.8264 8.26769C43.8375 8.24427 43.848 8.2221 43.8579 8.20203C43.7083 7.17045 43.9507 6.78624 44.8507 6.62118C44.9748 7.11749 44.8492 7.36019 44.7595 7.53355C44.6441 7.75664 44.588 7.86506 45.1988 8.25098C45.1954 8.20111 45.1888 8.13177 45.1809 8.04894V8.04888C45.1176 7.38598 44.9719 5.85936 45.7146 6.55161C45.7466 6.60598 45.7384 6.68953 45.7292 6.78473C45.7138 6.94249 45.6953 7.1321 45.8513 7.27361C45.9551 7.12013 46.0009 6.96111 46.0379 6.83249C46.068 6.72776 46.0924 6.64315 46.1375 6.59802C47.169 6.1029 46.3412 7.76618 45.8538 7.88736C46.1478 8.44184 46.6584 8.06539 46.7255 7.74559C45.8487 7.66302 47.2413 6.65993 47.8395 6.71407C48.0484 7.14993 47.3238 7.82295 46.7771 8.20203C46.9528 8.21177 47.0158 8.48072 47.0596 8.66756C47.1199 8.92486 47.1438 9.02657 47.3753 8.08078C47.4315 7.9419 47.6276 7.72986 47.8971 7.43861L47.8972 7.43855C48.048 7.27552 48.2218 7.08769 48.4068 6.87394C48.8635 7.65539 48.7781 7.63815 48.574 7.5969C48.4069 7.56309 48.1604 7.51328 48.0664 7.8719C47.7519 8.50624 48.8659 8.05756 48.8813 7.53151C48.8298 6.75789 50.1165 7.49026 49.4461 7.7894C49.4461 7.80118 49.427 7.83026 49.4036 7.86585C49.3144 8.00177 49.163 8.23236 49.7761 7.9544C50.3145 7.79473 50.133 8.20065 49.9282 8.65861C49.875 8.77749 49.8202 8.89993 49.7761 9.0169L49.8057 8.98605L49.8058 8.98598C50.1738 8.60315 50.3768 8.39203 50.4672 8.45986C50.5115 8.49302 50.5407 8.56855 50.5682 8.63953C50.6369 8.81677 50.6946 8.96552 50.9469 8.35407C51.7836 8.71361 51.5433 8.99855 51.3732 9.20019C51.2639 9.32986 51.1836 9.42506 51.4369 9.48361C51.5515 9.41907 51.6323 9.31815 51.7072 9.2246C51.8597 9.0342 51.9876 8.87447 52.3265 9.11486C52.567 9.38519 52.527 9.54559 52.487 9.70598C52.4648 9.79499 52.4426 9.88394 52.4684 9.99164C52.6652 9.8442 52.8897 9.73809 53.1285 9.6796C53.3207 9.75888 53.3001 9.93907 53.2812 10.1035C53.2669 10.228 53.2537 10.3435 53.3348 10.3991C53.652 9.6796 54.2735 10.608 54.1239 10.8839C53.9995 11.108 54.1381 11.0886 54.341 11.0603C54.605 11.0233 54.9776 10.9712 55.0213 11.4203C55.0539 11.6393 54.9524 11.8566 54.7634 11.9722C55.3437 11.7839 55.6222 12.6555 55.2973 13.1997C55.8878 13.1997 55.9239 14.4271 55.5552 14.7469C55.5552 14.7469 56.0451 14.9171 55.8569 15.8093C55.8106 16.0287 55.7119 16.0521 55.638 16.0697C55.6008 16.0785 55.5698 16.0859 55.5552 16.1162C55.813 17.1322 55.9032 17.9342 55.7021 19.7832C55.7005 20.2923 55.4439 20.7667 55.0188 21.0468C54.1913 21.9957 54.956 22.9721 55.5654 23.7503C55.6549 23.8645 55.741 23.9745 55.8182 24.0794C55.9233 24.2262 56.0717 24.4053 56.2344 24.6016L56.2345 24.6017C56.8061 25.2916 57.5543 26.1944 57.221 26.6581C57.1189 27.0197 56.583 27.2307 56.1236 27.4115C55.7017 27.5776 55.3444 27.7182 55.4469 27.9269C55.7382 28.5226 56.0503 29.3142 56.0503 29.3142C56.0503 29.3142 56.6821 30.0878 54.7841 30.4257C52.9325 30.7429 55.6222 31.318 55.6222 31.318C55.8755 31.6885 55.6478 31.9197 55.3807 32.1909C55.3188 32.2537 55.2548 32.3187 55.1942 32.3881C54.9579 32.8068 54.9219 33.3093 55.0961 33.7574C55.8852 34.8585 55.8698 35.5986 54.6861 35.957C53.8661 36.2149 50.7535 36.5141 48.8994 36.3258C48.8677 36.3219 48.835 36.3177 48.8014 36.3133C48.2168 36.2381 47.3702 36.1291 47.2799 36.9241C47.2881 37.3765 47.2585 37.746 47.2302 38.1001C47.1871 38.638 47.1469 39.1403 47.2463 39.8432C47.2463 40.6691 47.6155 41.3093 47.9135 41.8262C47.9393 41.871 47.9646 41.9148 47.989 41.9578C48.1091 42.1283 48.2194 42.3095 48.3313 42.4935C48.8542 43.3526 49.4135 44.2716 51.1763 44.4437C51.622 44.601 52.2197 44.5938 52.8226 44.5865C53.9292 44.5732 55.0532 44.5596 55.2869 45.5629C55.1202 45.5546 54.9636 45.5897 54.7355 45.6408H54.7354C54.4624 45.702 54.0869 45.7861 53.4689 45.8465C50.4308 45.8879 49.2892 45.7536 48.1621 45.621H48.1621C47.4619 45.5387 46.7672 45.457 45.6269 45.4184C45.1535 45.4421 44.5953 45.5185 44.0347 45.5951L44.0346 45.5952C43.3738 45.6856 42.7095 45.7764 42.1765 45.782C41.9737 47.0542 41.7511 48.329 41.5086 49.6063L41.2508 50.9318L41.1786 51.298L41.0187 52.0922C40.7849 53.2183 40.5356 54.3469 40.2709 55.4781C41.4519 56.1899 42.664 57.1878 42.664 58.9904C42.664 61.1617 40.9903 62.4975 38.3523 62.7863C37.1867 66.7972 35.8191 70.8597 34.2495 74.9735H71.0533C81.1105 48.7347 82.4928 25.0231 78.9415 0.0273438V0.0300267ZM50.9623 62.8483C46.9343 62.8483 44.1105 59.9885 44.1105 56.0249C44.1105 51.9866 46.8827 49.3511 50.9623 49.3511C55.0419 49.3511 57.7625 52.0614 57.7625 56.0249C57.7625 59.7847 55.0419 62.8457 50.9623 62.8457V62.8483ZM60.3331 62.4014C61.3417 62.6338 62.2729 62.8483 63.5363 62.8483L63.5285 62.8456C66.8112 62.8456 68.9698 61.4532 68.9592 58.9905C68.9592 56.7768 67.1382 55.7755 65.7848 55.0312L65.7256 54.9986C65.6165 54.9396 65.5082 54.8815 65.4014 54.8241C64.1072 54.1293 63.0179 53.5445 63.0179 52.8299C63.0179 52.1568 63.9643 51.8318 65.3156 51.8318C66.0842 51.8702 66.848 51.9702 67.6 52.131V49.5522C66.6487 49.4216 65.6905 49.3493 64.7302 49.3357C61.7621 49.3357 59.5546 50.5786 59.5546 52.817C59.5546 54.7227 61.3753 56.2183 62.8142 56.943C63.0456 57.0741 63.2667 57.1962 63.4755 57.3116C64.6952 57.9855 65.4961 58.4279 65.4961 59.0885C65.4961 59.9369 64.578 60.3598 63.66 60.3598C62.3804 60.3598 60.9584 59.9078 60.0021 59.6038C59.9292 59.5807 59.8591 59.5583 59.7919 59.5372V62.2784C59.9761 62.3193 60.1558 62.3607 60.3331 62.4014Z" fill="#00AFA9"/>
<path d="M50.9618 52.082C48.6796 52.082 47.5759 53.6525 47.5759 56.0198C47.5759 58.3871 48.8086 60.1149 50.9618 60.1149C53.2209 60.1149 54.2962 58.3458 54.2962 56.0275C54.2962 53.5364 53.1924 52.0897 50.9618 52.0897V52.082Z" fill="#0A9FA1"/>
<path fill-rule="evenodd" clip-rule="evenodd" d="M54.7334 45.6393C54.4608 45.7 54.086 45.7834 53.4715 45.8449L53.4688 45.863C50.4315 45.9043 49.2907 45.7701 48.164 45.6376C47.4636 45.5552 46.7686 45.4734 45.6269 45.4349C45.1627 45.4581 44.6175 45.534 44.0683 45.6105C43.397 45.7041 42.7197 45.7984 42.1765 45.7984L42.2822 45.1203C44.2421 32.4586 44.3426 19.5416 42.9708 6.76395C43.8217 6.78974 43.8682 7.72329 43.3808 8.37309C43.5196 9.01934 43.7228 8.58592 43.8503 8.31415C43.8601 8.29309 43.8696 8.27303 43.8785 8.25448C43.7263 7.22816 43.9713 6.83875 44.8713 6.67369C44.9953 7.17 44.8698 7.41322 44.7801 7.58697C44.6647 7.81046 44.6086 7.91901 45.2194 8.30349C45.2163 8.24869 45.2092 8.17026 45.2007 8.07638C45.1397 7.40184 45.0063 5.92502 45.7351 6.60408C45.7682 6.65855 45.7591 6.7423 45.7488 6.83763C45.7317 6.99533 45.7112 7.1848 45.8718 7.32619C45.9763 7.17033 46.0228 7.01053 46.0601 6.88191C46.0903 6.77855 46.1145 6.69533 46.1581 6.65053C47.2025 6.1348 46.3618 7.80842 45.8744 7.93994C46.1711 8.49434 46.6816 8.11783 46.7461 7.79809C45.8693 7.72329 47.2567 6.72013 47.8601 6.76658C48.0689 7.205 47.3547 7.87546 46.7976 8.25454C46.9734 8.26428 47.0364 8.53316 47.0802 8.72C47.1405 8.97737 47.1643 9.07908 47.3959 8.13329C47.459 7.99382 47.6547 7.78053 47.9238 7.48724C48.0726 7.32513 48.2438 7.13855 48.4274 6.92645C48.8836 7.70717 48.7988 7.68987 48.5951 7.64849C48.4281 7.61448 48.1811 7.56428 48.087 7.92441C47.7724 8.55882 48.8838 8.0998 48.9019 7.58401C48.8478 6.8104 50.1371 7.535 49.4666 7.84191C49.469 7.85467 49.4477 7.88809 49.4222 7.92803C49.3347 8.0654 49.1976 8.28053 49.7967 8.00691C50.3165 7.8498 50.1468 8.24046 49.9518 8.68941C49.8973 8.81507 49.8407 8.94527 49.7967 9.06934C49.8068 9.05888 49.8167 9.04855 49.8266 9.03829C50.1945 8.65559 50.3974 8.44454 50.4878 8.51237C50.532 8.54553 50.5613 8.62105 50.5888 8.69204C50.6576 8.86928 50.7152 9.01803 50.9675 8.40665C51.8018 8.76579 51.5622 9.05053 51.3925 9.25217C51.2832 9.38211 51.2028 9.4775 51.4574 9.53612C51.5723 9.47145 51.6521 9.37026 51.726 9.27665C51.8759 9.08645 52.0016 8.92717 52.3471 9.16737C52.5878 9.4379 52.5475 9.59948 52.5075 9.76C52.4853 9.84895 52.4632 9.93757 52.489 10.0441C52.6858 9.89678 52.9103 9.79059 53.1491 9.73211C53.3414 9.81283 53.3207 9.99388 53.3018 10.1582C53.2875 10.2824 53.2743 10.3972 53.3554 10.4516C53.6726 9.73211 54.2941 10.663 54.1445 10.9364C54.0193 11.1642 54.1605 11.1449 54.3655 11.1168C54.6292 11.0808 54.9984 11.0303 55.042 11.4728C55.0745 11.6918 54.9729 11.9091 54.784 12.0247C55.3643 11.8364 55.6428 12.708 55.3179 13.2522C55.9136 13.2289 55.947 14.4693 55.5758 14.7994C55.5758 14.7994 56.0657 14.9696 55.8774 15.8618C55.8312 16.0812 55.7325 16.1047 55.6587 16.1222C55.6214 16.1311 55.5905 16.1384 55.5758 16.1687C55.8311 17.1847 55.9239 17.9868 55.7228 19.8357C55.6994 20.3289 55.4378 20.7799 55.0213 21.0451C54.1938 21.9941 54.9585 22.9704 55.5679 23.7486C55.6574 23.8628 55.7435 23.9728 55.8207 24.0778C55.9259 24.2246 56.0743 24.4038 56.237 24.6001C56.8087 25.29 57.5568 26.1928 57.2236 26.6564C57.1214 27.0181 56.5855 27.229 56.1262 27.4099C55.7043 27.5759 55.3469 27.7166 55.4494 27.9253C55.7408 28.5184 56.0528 29.3126 56.0528 29.3126C56.0528 29.3126 56.6846 30.0991 54.7866 30.424C52.9377 30.7413 55.6247 31.3163 55.6247 31.3163C55.879 31.6883 55.6503 31.9198 55.3811 32.1923C55.32 32.2542 55.2568 32.3182 55.1966 32.3865C54.9605 32.8051 54.9245 33.3077 55.0987 33.7557C55.8878 34.8543 55.8594 35.5944 54.6887 35.9554C53.8686 36.2055 50.7561 36.5098 48.9019 36.3241C48.8724 36.3204 48.842 36.3164 48.8109 36.3123C48.2224 36.2351 47.3755 36.124 47.2824 36.9224C47.2907 37.3748 47.2611 37.7443 47.2327 38.0983C47.1896 38.6363 47.1494 39.1386 47.2489 39.8416C47.2395 40.657 47.607 41.2915 47.9045 41.8049C47.9344 41.8565 47.9636 41.9069 47.9916 41.9561C48.1098 42.1251 48.2186 42.3043 48.3289 42.4861C48.8521 43.348 49.4115 44.2695 51.1789 44.442C51.6283 44.5994 52.2272 44.5925 52.8301 44.5855C53.9363 44.5727 55.0558 44.5597 55.2895 45.5612C55.1216 45.553 54.9641 45.588 54.7334 45.6393ZM52.3599 22.025C51.0629 21.5531 49.7141 22.2622 49.1236 22.6671C48.8967 22.8218 50.6348 23.6315 51.803 23.3634C51.8339 23.359 51.8654 23.3549 51.8973 23.3507C52.2983 23.2982 52.7503 23.239 52.6978 22.6155C52.6745 22.3293 52.5818 22.1049 52.3599 22.025Z" fill="#3546A8"/>
<path d="M41.2401 50.9336L41.168 51.2998L41.2401 50.9336Z" fill="#3C4492"/>
<path fill-rule="evenodd" clip-rule="evenodd" d="M44.1104 56.0195C44.1104 51.9812 46.8825 49.3457 50.9621 49.3457C55.0184 49.3457 57.7648 52.056 57.7622 56.0195C57.7622 59.7845 55.0416 62.8429 50.9621 62.8429C46.9469 62.8429 44.1104 59.9831 44.1104 56.0195ZM47.5761 56.0195C47.5761 58.361 48.8088 60.1069 50.9621 60.1069C53.2184 60.1069 54.2964 58.3404 54.2964 56.0195C54.2964 53.5285 53.1927 52.0818 50.9621 52.0818C48.6798 52.0818 47.5761 53.678 47.5761 56.0195Z" fill="white"/>
<path d="M65.7335 54.9989C64.3023 54.2252 63.0258 53.6011 63.0258 52.8301C63.0258 52.1571 63.9696 51.8322 65.3235 51.8322C66.0921 51.8705 66.8559 51.9705 67.6085 52.1313V49.5526C66.6566 49.4219 65.6983 49.3496 64.7381 49.3359C61.77 49.3359 59.5626 50.5789 59.5626 52.8173C59.5626 54.7126 61.3858 56.2083 62.8221 56.9432C64.4055 57.8407 65.504 58.3151 65.504 59.0888C65.504 59.9372 64.586 60.3601 63.6679 60.3601C62.2858 60.3601 60.7437 59.8444 59.7999 59.5374V62.2735C61.0325 62.5469 62.0588 62.8434 63.5441 62.8434C66.8191 62.8434 68.975 61.4535 68.975 58.9753C68.975 56.7292 67.1 55.7338 65.7412 54.9834L65.7335 54.9989Z" fill="white"/>
<path d="M14.3878 49.7017C14.3878 47.7082 14.5167 45.9393 14.5167 44.668H10.0194C10.3974 46.7224 10.5702 48.8095 10.5351 50.8982V57.8272C10.5351 59.8465 10.4836 60.9682 10.4062 62.4123H14.9036C14.6117 60.3472 14.4395 58.267 14.3878 56.1821V49.7017Z" fill="white"/>
<path fill-rule="evenodd" clip-rule="evenodd" d="M21.1834 51.4162C21.9966 50.507 23.0353 49.3457 25.471 49.3457V49.3509C29.0709 49.3509 31.5362 52.2624 31.5362 56.3496C31.5362 60.112 29.1482 62.8481 25.6257 62.8481C23.7091 62.8481 22.7285 62.2589 21.8631 61.739C21.7877 61.6937 21.7132 61.6489 21.6389 61.6051V63.0982C21.6258 64.6879 21.7119 66.2772 21.8968 67.8562L17.6574 68.1141L17.6627 68.066C17.7988 66.8298 18.1731 63.4326 18.1731 61.6154V56.396C18.1731 54.1602 17.8095 52.123 17.3995 49.9362L20.6616 49.6784C20.7863 50.0241 20.8637 50.3718 20.9464 50.7433C20.9987 50.9787 21.0532 51.2235 21.1232 51.4835C21.1432 51.4612 21.1632 51.4388 21.1834 51.4162ZM21.3785 56.3883C21.3785 58.8484 22.6137 60.1146 24.7747 60.1146V60.1172C26.9615 60.1172 28.0678 58.6215 28.0678 56.378C28.0678 53.8585 26.652 52.0895 24.62 52.0895C22.4332 52.0895 21.3785 53.8327 21.3785 56.3883Z" fill="white"/>
<path d="M33.2412 52.8265C33.2412 54.7219 35.0643 56.2175 36.5007 56.9524C38.0841 57.8499 39.1826 58.3244 39.1826 59.098C39.1826 59.9464 38.2646 60.3693 37.3439 60.3693C35.9618 60.3693 34.4196 59.8535 33.4758 59.5467V62.2827C34.7085 62.5561 35.7348 62.8526 37.2227 62.8526C37.5975 62.8532 37.972 62.8334 38.3445 62.7933C40.98 62.5045 42.6562 61.1687 42.6562 58.9974C42.6562 57.1922 41.4442 56.1943 40.2631 55.4851C39.9743 55.3123 39.6881 55.1551 39.4198 55.008C37.9887 54.2344 36.7122 53.6103 36.7122 52.8393C36.7122 52.1663 37.656 51.8413 39.0098 51.8413C39.6833 51.8658 40.3532 51.9521 41.0109 52.0992L41.1708 51.3049L41.2431 50.9388L41.5009 49.6133C40.4752 49.4682 39.442 49.3821 38.4064 49.3555C35.4383 49.3555 33.2308 50.5984 33.2308 52.8368L33.2412 52.8265Z" fill="white"/>
<path d="M38.3423 62.7808C40.9777 62.492 42.6539 61.1562 42.6539 58.9849C42.6539 57.1798 41.4419 56.1818 40.2608 55.4727C39.4718 58.9849 39.1428 60.1982 38.3423 62.7808Z" fill="white"/>
</g>
<defs>
<clipPath id="clip0_504_5009">
<rect width="80.9211" height="75" fill="white"/>
</clipPath>
</defs>
</svg>
