<svg width="169" height="34" viewBox="0 0 169 34" fill="none" xmlns="http://www.w3.org/2000/svg">
<path fill-rule="evenodd" clip-rule="evenodd" d="M38.5042 0.800781L27.0051 32.6843H33.1031L35.7165 25.3668H47.0412L49.6546 32.6843H55.7526L44.2536 0.800781H38.5042ZM41.2918 9.68632L44.9505 19.7915H37.633L41.2918 9.68632ZM120.217 0.975006H125.966L137.639 32.6843H131.542L128.928 25.3668H117.603L114.815 32.8585L108.718 32.6843L120.217 0.975006ZM123.178 9.68632L126.837 19.7915H119.519L123.178 9.68632ZM58.8886 0.975006H63.4184L79.6216 21.1853V0.975006H85.7193V32.8585H81.5383L64.9865 12.1255V32.8585H58.8886V0.975006ZM112.028 6.37606V0.975006H89.204V6.37606H97.5672V32.6843H103.665V6.37606H112.028ZM167.432 32.6843L157.501 18.9204C158.721 18.5719 159.766 17.875 160.463 17.0039C162.031 15.2616 162.902 12.8224 162.902 10.3833C162.902 7.94407 162.031 5.5049 160.463 3.76263C158.721 1.84614 156.282 0.975006 152.274 0.975006H140.427V32.8585H146.525V19.9657H151.578L160.811 32.8585H167.432V32.6843ZM152.274 6.37606H146.699V14.3905H152.274C153.668 14.5647 155.062 14.2162 156.107 13.1709C156.804 12.2997 157.153 11.4286 157.153 10.3833C157.153 9.33791 156.804 8.29255 156.107 7.5956C155.062 6.72448 153.668 6.20182 152.274 6.37606ZM25.4371 0.975006H18.8165L7.49176 16.8297L18.8165 32.6843H25.4371L14.1124 16.8297L25.4371 0.975006ZM5.57526 0.975006H0V32.8585H5.57526V0.975006Z" fill="#1D1D1B"/>
<path d="M5.57532 0.976562H7.49184V32.8601H5.57532V0.976562Z" fill="#D6B346"/>
</svg>
