<svg width="261" height="63" viewBox="0 0 261 63" fill="none" xmlns="http://www.w3.org/2000/svg">
<path d="M9.07219 48.0432L0 36.6591H31.9521C38.5817 36.6591 44.0151 31.0192 44.0151 24.0216C44.0151 17.0762 38.6316 11.3842 31.9521 11.3842H9.07219L0 0H31.9521C44.5634 0 54.8319 10.7575 54.8319 23.9694C54.8319 37.1813 44.5634 47.9388 31.9521 47.9388H9.07219V48.0432Z" fill="#AF058F"/>
<path d="M9.07219 29.766L0 18.3818H25.3722L34.4444 29.766H9.07219Z" fill="#AF058F"/>
<rect x="223.615" y="6.63184" width="6.08136" height="36.9724" fill="black"/>
<path fill-rule="evenodd" clip-rule="evenodd" d="M115.695 16.032C118.985 16.032 121.727 17.3897 123.721 19.4263V16.7109H129.802V43.6568H123.721V40.9413C121.727 42.978 119.035 44.3357 115.695 44.3357C108.268 44.3357 102.785 38.017 102.785 30.1838C102.785 22.3507 108.218 16.032 115.695 16.032ZM108.866 30.1319C108.866 34.5706 112.206 38.1739 116.294 38.1739C120.381 38.1739 123.721 34.5706 123.721 30.1319C123.721 25.6931 120.381 22.0898 116.294 22.0898C112.206 22.0898 108.866 25.6931 108.866 30.1319Z" fill="black"/>
<rect x="211.95" y="16.7109" width="6.08134" height="26.946" fill="black"/>
<path fill-rule="evenodd" clip-rule="evenodd" d="M165.044 16.032C168.334 16.032 171.076 17.3897 173.07 19.4263V16.7109H179.151V43.6568H173.07V40.9413C171.076 42.978 168.384 44.3357 165.044 44.3357C157.617 44.3357 152.134 38.017 152.134 30.1838C152.134 22.3507 157.567 16.032 165.044 16.032ZM158.215 30.1319C158.215 34.5706 161.555 38.1739 165.642 38.1739C169.73 38.1739 173.069 34.5706 173.069 30.1319C173.069 25.6931 169.73 22.0898 165.642 22.0898C161.555 22.0898 158.215 25.6931 158.215 30.1319Z" fill="black"/>
<path d="M143.859 9.76562L133.042 19.2698V22.9253H137.778V35.0928C137.778 44.8581 145.803 44.4403 150.04 43.657V37.4427C147.398 37.9649 143.859 38.9049 143.859 34.3617V22.9775H150.04V16.7632H143.859V9.76562Z" fill="black"/>
<path d="M247.491 15.9792C240.014 15.9792 233.983 22.298 233.983 30.1311C233.983 37.9642 240.014 44.283 247.491 44.283C251.031 44.283 254.271 42.8208 256.713 40.4708L252.925 35.7187C251.529 37.1809 249.635 38.1209 247.491 38.1209C243.254 38.1209 239.815 34.5177 239.815 30.0789C239.815 25.6401 243.254 22.0369 247.491 22.0369C250.881 22.0369 253.772 24.3346 254.769 27.5723H243.603L247.741 32.7421H254.719H258.209H260.751C260.9 31.8544 261 30.9666 261 30.0267C261 22.3502 254.968 15.9792 247.491 15.9792Z" fill="black"/>
<path d="M214.991 5.95337C212.947 5.95337 211.302 7.67666 211.302 9.81771C211.302 11.9588 212.947 13.6821 214.991 13.6821C217.035 13.6821 218.68 11.9588 218.68 9.81771C218.68 7.67666 217.035 5.95337 214.991 5.95337Z" fill="black"/>
<path fill-rule="evenodd" clip-rule="evenodd" d="M69.2877 6.63184H82.896C92.3171 6.63184 99.9935 14.6739 99.9935 25.118C99.9935 35.5622 92.3171 43.6042 82.896 43.6042H69.2877V6.63184ZM75.6681 37.233H82.547C88.6782 37.233 93.663 32.1676 93.7128 25.17C93.7128 18.1202 88.7281 13.0547 82.547 13.0547H75.6681V37.233Z" fill="black"/>
<path d="M179.201 13.0028H191.064V43.6042H197.445V13.0028H209.308V6.63184H179.201V13.0028Z" fill="black"/>
<path fill-rule="evenodd" clip-rule="evenodd" d="M73.0262 52.9519H69.2877V61.9339H73.0262C73.9235 61.9339 74.7709 61.725 75.4687 61.3595C76.1666 60.9939 76.7149 60.4717 77.1137 59.7928C77.5125 59.114 77.7118 58.3307 77.7118 57.4429C77.7118 56.5551 77.5125 55.7718 77.1137 55.093C76.7149 54.4141 76.1666 53.8919 75.4687 53.5263C74.7709 53.1608 73.9235 52.9519 73.0262 52.9519ZM74.5714 60.1585C74.1228 60.4197 73.5745 60.5241 72.9264 60.5241H70.8329V54.362H72.9264C73.5246 54.362 74.0729 54.4665 74.5714 54.7276C75.02 54.9887 75.4188 55.3542 75.668 55.8242C75.9173 56.2942 76.0668 56.8164 76.0668 57.4431C76.0668 58.0697 75.9173 58.5919 75.668 59.0619C75.4188 59.5319 75.0699 59.8974 74.5714 60.1585Z" fill="black"/>
<path fill-rule="evenodd" clip-rule="evenodd" d="M84.6904 57.9652C84.6904 56.973 84.4411 56.2419 83.9427 55.7719C83.4442 55.2497 82.6965 55.0408 81.7494 55.1453C81.2011 55.1453 80.7026 55.1975 80.2041 55.3541C79.7056 55.5108 79.3069 55.7197 78.9579 55.9808L79.5561 57.1296C79.8053 56.8685 80.1044 56.7119 80.4534 56.6074C80.8023 56.503 81.2011 56.4508 81.55 56.4508C82.0485 56.4508 82.4971 56.5552 82.7463 56.8163C82.9956 57.0774 83.1451 57.443 83.1451 57.913V58.0174H81.4503C80.553 58.0174 79.8552 58.2263 79.4066 58.5918C78.9579 58.9574 78.7585 59.4274 78.7585 60.054C78.7585 60.4196 78.8582 60.7851 79.0576 61.0984C79.257 61.4118 79.5561 61.6729 79.905 61.8295C80.3038 61.9862 80.7026 62.0906 81.2011 62.0906C81.6995 62.0906 82.0983 61.9862 82.4472 61.8295C82.7962 61.6729 83.0454 61.464 83.2448 61.1506V61.9862H84.6904V57.9652ZM83.1949 59.8452C83.0454 60.1586 82.846 60.4197 82.5469 60.6285C82.2478 60.7852 81.8989 60.8897 81.5001 60.8897C81.1512 60.8897 80.8023 60.7852 80.6029 60.6285C80.3536 60.4719 80.2539 60.263 80.2539 59.9497C80.2539 59.3752 80.7026 59.0619 81.5998 59.0619H83.1949V59.8452Z" fill="black"/>
<path d="M87.1329 61.8297C86.6344 61.673 86.2356 61.5164 85.9365 61.2553L86.5347 60.0542C86.8338 60.2631 87.1827 60.4197 87.5815 60.5242C87.9803 60.6286 88.379 60.7331 88.7778 60.7331C89.6751 60.7331 90.1735 60.472 90.1735 59.9498C90.1735 59.6887 90.0738 59.532 89.8246 59.4275C89.5754 59.3231 89.2264 59.2187 88.728 59.1664C88.1796 59.062 87.731 58.9576 87.4319 58.8531C87.083 58.7487 86.7839 58.5398 86.5347 58.2787C86.2855 58.0176 86.1359 57.5998 86.1359 57.1298C86.1359 56.5032 86.3851 55.981 86.9335 55.5632C87.4319 55.1977 88.1298 54.9888 89.0271 54.9888C89.4757 54.9888 89.9243 55.041 90.3729 55.1454C90.8216 55.2499 91.1705 55.4065 91.4696 55.5632L90.8714 56.7643C90.3231 56.3987 89.6751 56.2421 88.9772 56.2421C88.5286 56.2421 88.1796 56.2943 87.9304 56.451C87.6812 56.6076 87.5815 56.7643 87.5815 57.0254C87.5815 57.2865 87.6812 57.4432 87.9803 57.5476C88.2295 57.652 88.6283 57.7565 89.1267 57.8609C89.6252 57.9654 90.0738 58.0698 90.4228 58.1742C90.7717 58.2787 91.0209 58.4876 91.2702 58.7487C91.5194 59.0098 91.6191 59.3753 91.6191 59.8975C91.6191 60.5242 91.3699 61.0464 90.8216 61.4642C90.2732 61.8297 89.5754 62.0386 88.6283 62.0386C88.1796 62.0386 87.6313 61.9864 87.1329 61.8297Z" fill="black"/>
<path d="M98.6975 55.772C99.1959 56.2942 99.4452 57.0253 99.4452 58.0175V61.9341H97.8999V58.2264C97.8999 57.652 97.7504 57.182 97.5011 56.8687C97.2519 56.5554 96.8531 56.3987 96.3546 56.3987C95.8063 56.3987 95.3577 56.5554 95.0088 56.9209C94.6598 57.2864 94.5103 57.8087 94.5103 58.4353V61.8819H92.965V52.3777H94.5103V55.8243C94.7595 55.5632 95.0586 55.3021 95.4574 55.1976C95.8063 55.0409 96.2549 54.9887 96.7036 54.9887C97.551 55.0409 98.199 55.3021 98.6975 55.772Z" fill="black"/>
<path fill-rule="evenodd" clip-rule="evenodd" d="M107.919 56.7118C107.62 56.1374 107.221 55.7718 106.723 55.4585C106.224 55.1452 105.626 55.0407 105.028 55.0407C104.629 55.0407 104.231 55.093 103.882 55.2496C103.483 55.4063 103.184 55.6152 102.935 55.9285V52.4297H101.389V61.9339H102.835V61.0461C103.084 61.3595 103.433 61.6206 103.782 61.7772C104.181 61.9339 104.58 62.0383 105.028 62.0383C105.626 62.0383 106.224 61.9339 106.723 61.6206C107.221 61.3072 107.62 60.8895 107.919 60.3673C108.218 59.8451 108.368 59.2184 108.368 58.5395C108.368 57.8607 108.218 57.234 107.919 56.7118ZM106.773 58.5397C106.773 59.2185 106.573 59.6885 106.224 60.1063C105.875 60.4718 105.427 60.6807 104.829 60.6807C104.48 60.6807 104.131 60.5763 103.832 60.4196C103.533 60.263 103.283 60.0018 103.134 59.6885C102.984 59.323 102.885 58.9574 102.885 58.5397C102.885 58.0697 102.984 57.7041 103.134 57.3908C103.283 57.0775 103.533 56.8164 103.832 56.6597C104.131 56.503 104.48 56.3986 104.829 56.3986C105.377 56.3986 105.875 56.5553 106.224 56.973C106.573 57.3908 106.773 57.913 106.773 58.5397Z" fill="black"/>
<path fill-rule="evenodd" clip-rule="evenodd" d="M109.714 60.3675C110.013 60.8897 110.412 61.3075 110.96 61.6208C111.458 61.8819 112.057 62.0386 112.754 62.0908C113.402 62.0908 114.001 61.9341 114.549 61.6208C115.097 61.3075 115.496 60.8897 115.795 60.3675C116.094 59.8453 116.244 59.2187 116.244 58.5398C116.244 57.8609 116.094 57.2343 115.795 56.7121C115.496 56.1898 115.097 55.7721 114.549 55.4588C114.001 55.1454 113.402 54.9888 112.754 54.9888C112.106 54.9888 111.508 55.1454 110.96 55.4588C110.412 55.7721 110.013 56.1898 109.714 56.7121C109.415 57.2343 109.265 57.8609 109.265 58.5398C109.265 59.2187 109.415 59.8453 109.714 60.3675ZM114.698 58.5397C114.698 59.2185 114.499 59.6885 114.15 60.1063C113.751 60.4718 113.303 60.6807 112.754 60.6807C112.206 60.6807 111.708 60.5241 111.359 60.1063C111.01 59.6885 110.81 59.1663 110.81 58.5397C110.81 57.8608 111.01 57.3908 111.359 56.973C111.708 56.6075 112.206 56.3986 112.754 56.3986C113.303 56.3986 113.801 56.5553 114.15 56.973C114.499 57.3908 114.698 57.913 114.698 58.5397Z" fill="black"/>
<path fill-rule="evenodd" clip-rule="evenodd" d="M123.073 57.9652C123.073 56.973 122.824 56.2419 122.325 55.7719C121.827 55.2497 121.079 55.0408 120.132 55.1453C119.583 55.1453 119.085 55.1975 118.587 55.3541C118.088 55.5108 117.689 55.7197 117.34 55.9808L117.939 57.1296C118.188 56.8685 118.487 56.7119 118.836 56.6074C119.185 56.503 119.584 56.4508 119.932 56.4508C120.431 56.4508 120.88 56.5552 121.129 56.8163C121.378 57.0774 121.528 57.443 121.528 57.913V58.0174H119.833C118.935 58.0174 118.238 58.2263 117.789 58.5918C117.34 58.9574 117.141 59.4274 117.141 60.054C117.141 60.4196 117.241 60.7851 117.44 61.0984C117.639 61.4118 117.939 61.6729 118.287 61.8295C118.686 61.9862 119.085 62.0906 119.583 62.0906C120.082 62.0906 120.481 61.9862 120.83 61.8295C121.179 61.6729 121.428 61.464 121.627 61.1506V61.9862H123.073V57.9652ZM121.577 59.8452C121.428 60.1586 121.228 60.4197 120.929 60.6285C120.63 60.7852 120.281 60.8897 119.883 60.8897C119.534 60.8897 119.185 60.7852 118.985 60.6285C118.736 60.4719 118.636 60.263 118.636 59.9497C118.636 59.3752 119.085 59.0619 119.982 59.0619H121.577V59.8452Z" fill="black"/>
<path d="M128.855 55.0408V56.5552C128.705 56.5552 128.606 56.503 128.506 56.503C127.908 56.503 127.459 56.6596 127.11 57.0252C126.761 57.3907 126.612 57.9129 126.612 58.5918V61.9339H125.067V55.093H126.512V56.0852C126.961 55.4063 127.709 55.0408 128.855 55.0408Z" fill="black"/>
<path fill-rule="evenodd" clip-rule="evenodd" d="M136.482 61.9339V52.4297H134.887V55.9285C134.637 55.6152 134.338 55.4063 133.989 55.2496C133.64 55.093 133.242 55.0407 132.793 55.0407C132.145 55.0407 131.597 55.1452 131.098 55.4585C130.6 55.7718 130.201 56.1896 129.902 56.7118C129.603 57.234 129.453 57.8607 129.453 58.5395C129.453 59.2184 129.603 59.8451 129.902 60.3673C130.201 60.9417 130.6 61.3072 131.098 61.6206C131.597 61.8817 132.145 62.0383 132.793 62.0383C133.242 62.0383 133.69 61.9339 134.039 61.7772C134.438 61.6206 134.737 61.3595 134.986 61.0461V61.9339H136.482ZM134.737 59.6885C134.587 60.0018 134.338 60.263 134.039 60.4196C133.74 60.5763 133.391 60.6807 133.042 60.6807C132.693 60.6807 132.344 60.5763 132.045 60.4196C131.746 60.263 131.497 60.0018 131.347 59.6885C131.198 59.323 131.098 58.9574 131.098 58.5397C131.098 58.0697 131.198 57.7041 131.347 57.3908C131.497 57.0775 131.746 56.8164 132.045 56.6597C132.344 56.503 132.693 56.3986 133.042 56.3986C133.391 56.3986 133.74 56.503 134.039 56.6597C134.338 56.8164 134.587 57.0775 134.737 57.3908C134.887 57.7564 134.986 58.1219 134.986 58.5397C134.986 59.0097 134.887 59.3752 134.737 59.6885Z" fill="black"/>
<path d="M138.974 61.8297C138.476 61.673 138.077 61.5164 137.778 61.2553L138.376 60.0542C138.675 60.2631 139.024 60.4197 139.423 60.5242C139.821 60.6286 140.22 60.7331 140.619 60.7331C141.516 60.7331 142.015 60.472 142.015 59.9498C142.015 59.6887 141.915 59.532 141.666 59.4275C141.417 59.3231 141.068 59.2187 140.569 59.1664C140.021 59.062 139.572 58.9576 139.273 58.8531C138.924 58.7487 138.625 58.5398 138.376 58.2787C138.127 58.0176 137.977 57.5998 137.977 57.1298C137.977 56.5032 138.226 55.981 138.775 55.5632C139.273 55.1977 139.971 54.9888 140.868 54.9888C141.317 54.9888 141.765 55.041 142.214 55.1454C142.663 55.2499 143.012 55.4065 143.311 55.5632L142.713 56.7643C142.164 56.3987 141.516 56.2421 140.818 56.2421C140.37 56.2421 140.021 56.2943 139.772 56.451C139.522 56.6076 139.423 56.7643 139.423 57.0254C139.423 57.2865 139.522 57.4432 139.821 57.5476C140.071 57.652 140.469 57.7565 140.968 57.8609C141.466 57.9654 141.915 58.0698 142.264 58.1742C142.613 58.2787 142.862 58.4876 143.111 58.7487C143.361 59.0098 143.46 59.3753 143.46 59.8975C143.46 60.5242 143.211 61.0464 142.663 61.4642C142.114 61.8297 141.417 62.0386 140.469 62.0386C139.971 62.0386 139.473 61.9864 138.974 61.8297Z" fill="black"/>
<path fill-rule="evenodd" clip-rule="evenodd" d="M148.096 60.3675C148.395 60.8897 148.794 61.3075 149.342 61.6208C149.841 61.8819 150.439 62.0386 151.137 62.0908C151.785 62.0908 152.383 61.9341 152.931 61.6208C153.48 61.3075 153.878 60.8897 154.177 60.3675C154.476 59.8453 154.626 59.2187 154.626 58.5398C154.626 57.8609 154.476 57.2343 154.177 56.7121C153.878 56.1898 153.48 55.7721 152.931 55.4588C152.383 55.1454 151.785 54.9888 151.137 54.9888C150.489 54.9888 149.891 55.1454 149.342 55.4588C148.794 55.7721 148.395 56.1898 148.096 56.7121C147.797 57.2343 147.647 57.8609 147.647 58.5398C147.647 59.2187 147.797 59.8453 148.096 60.3675ZM153.081 58.5397C153.081 59.2185 152.881 59.6885 152.532 60.1063C152.134 60.4718 151.685 60.6807 151.137 60.6807C150.588 60.6807 150.09 60.5241 149.741 60.1063C149.392 59.6885 149.193 59.1663 149.193 58.5397C149.193 57.8608 149.392 57.3908 149.741 56.973C150.09 56.6075 150.588 56.3986 151.137 56.3986C151.685 56.3986 152.183 56.5553 152.532 56.973C152.881 57.3908 153.081 57.913 153.081 58.5397Z" fill="black"/>
<path d="M161.804 55.7718C162.302 56.294 162.552 57.0251 162.552 58.0173V61.9339H161.006V58.2262C161.006 57.6518 160.857 57.1818 160.608 56.8685C160.358 56.5551 159.96 56.3985 159.461 56.3985C158.913 56.3985 158.464 56.5551 158.115 56.9207C157.766 57.2862 157.617 57.8084 157.617 58.4351V61.8817H156.072V55.0407H157.517V55.9285C157.766 55.6152 158.065 55.354 158.464 55.1974C158.863 55.0407 159.262 54.9363 159.76 54.9363C160.608 55.0407 161.305 55.3018 161.804 55.7718Z" fill="black"/>
<path d="M168.733 61.7772C168.135 61.5683 167.636 61.3072 167.287 60.9939L167.836 59.6883C168.184 60.0017 168.633 60.2106 169.132 60.4194C169.63 60.6283 170.178 60.6805 170.677 60.6805C171.325 60.6805 171.773 60.5761 172.122 60.3672C172.421 60.1583 172.571 59.845 172.571 59.5317C172.571 59.2706 172.471 59.0617 172.322 58.905C172.122 58.7484 171.923 58.5917 171.674 58.5395C171.425 58.435 171.026 58.3306 170.577 58.2262C169.929 58.0695 169.381 57.9128 168.982 57.7562C168.583 57.5995 168.234 57.3384 167.935 56.9729C167.636 56.6073 167.487 56.1373 167.487 55.5629C167.487 55.0929 167.636 54.6229 167.885 54.2052C168.135 53.7874 168.533 53.4741 169.032 53.213C169.53 52.9519 170.178 52.8474 170.926 52.8474C171.425 52.8474 171.973 52.8996 172.471 53.0563C172.97 53.213 173.418 53.3696 173.767 53.6307L173.269 54.9362C172.87 54.7274 172.521 54.5185 172.073 54.414C171.674 54.3096 171.275 54.2574 170.876 54.2574C170.228 54.2574 169.78 54.3618 169.481 54.5707C169.181 54.7796 169.032 55.0929 169.032 55.4585C169.032 55.7196 169.132 55.9284 169.281 56.0851C169.481 56.2418 169.68 56.3984 169.929 56.4507C170.178 56.5551 170.577 56.6595 171.026 56.764C171.674 56.9206 172.172 57.0773 172.571 57.234C172.97 57.3906 173.319 57.6517 173.618 58.0173C173.917 58.3828 174.066 58.8006 174.066 59.4272C174.066 59.9495 173.917 60.3672 173.668 60.785C173.418 61.2028 173.02 61.5161 172.521 61.725C172.023 61.9861 171.375 62.0905 170.627 62.0905C170.029 62.0905 169.381 61.9861 168.733 61.7772Z" fill="black"/>
<path d="M179.5 61.5684C179.3 61.7251 179.101 61.8295 178.852 61.934C178.603 61.9862 178.303 62.0384 178.054 62.0384C177.356 62.0384 176.758 61.8295 176.409 61.464C176.011 61.0462 175.811 60.4718 175.811 59.7407V56.4508H174.714V55.1452H175.811V53.5786H177.356V55.1452H179.101V56.4508H177.356V59.6885C177.356 60.0018 177.456 60.2629 177.606 60.4718C177.755 60.6284 178.004 60.7329 178.303 60.7329C178.652 60.7329 178.951 60.6284 179.151 60.4718L179.5 61.5684Z" fill="black"/>
<path fill-rule="evenodd" clip-rule="evenodd" d="M181.544 59.0617H186.678C186.678 58.8528 186.678 58.6962 186.728 58.4873C186.728 57.7562 186.628 57.1296 186.329 56.6073C186.03 56.0851 185.631 55.6674 185.133 55.354C184.634 55.0929 184.086 54.9363 183.438 54.9363C182.79 54.9363 182.192 55.0929 181.693 55.4063C181.195 55.7196 180.796 56.1374 180.497 56.6596C180.198 57.234 180.048 57.8084 180.048 58.4873C180.048 59.1662 180.198 59.7928 180.497 60.315C180.796 60.8372 181.195 61.255 181.743 61.5683C182.291 61.8817 182.939 62.0383 183.637 62.0383C184.185 62.0383 184.684 61.9861 185.133 61.7772C185.581 61.5683 185.93 61.3072 186.229 60.9417L185.432 59.9495C184.933 60.4195 184.335 60.6806 183.637 60.6806C183.089 60.6806 182.64 60.5761 182.241 60.2628C181.892 59.9495 181.643 59.5839 181.544 59.0617ZM181.544 57.9651C181.593 57.4951 181.793 57.0774 182.142 56.764C182.491 56.4507 182.889 56.2941 183.388 56.2941C183.886 56.2941 184.285 56.4507 184.634 56.764C184.983 57.0774 185.182 57.4951 185.232 57.9651H181.544Z" fill="black"/>
<path d="M191.962 55.0408V56.5552C191.812 56.5552 191.712 56.503 191.613 56.503C191.015 56.503 190.566 56.6596 190.217 57.0252C189.868 57.3907 189.719 57.9129 189.719 58.5918V61.9339H188.173V55.093H189.619V56.0852C190.067 55.4063 190.865 55.0408 191.962 55.0408Z" fill="black"/>
<path fill-rule="evenodd" clip-rule="evenodd" d="M193.108 60.3675C193.407 60.8897 193.806 61.3075 194.354 61.6208C194.853 61.8819 195.451 62.0386 196.149 62.0908C196.797 62.0908 197.395 61.9341 197.943 61.6208C198.492 61.3075 198.89 60.8897 199.189 60.3675C199.488 59.8453 199.638 59.2187 199.638 58.5398C199.638 57.8609 199.488 57.2343 199.189 56.7121C198.89 56.1898 198.492 55.7721 197.943 55.4588C197.395 55.1454 196.797 54.9888 196.149 54.9888C195.501 54.9888 194.903 55.1454 194.354 55.4588C193.806 55.7721 193.407 56.1898 193.108 56.7121C192.809 57.2343 192.659 57.8609 192.659 58.5398C192.659 59.2187 192.809 59.8453 193.108 60.3675ZM198.093 58.5397C198.093 59.2185 197.893 59.6885 197.544 60.1063C197.146 60.4718 196.697 60.6807 196.149 60.6807C195.6 60.6807 195.102 60.5241 194.753 60.1063C194.404 59.6885 194.205 59.1663 194.205 58.5397C194.205 57.8608 194.404 57.3908 194.753 56.973C195.102 56.6075 195.6 56.3986 196.149 56.3986C196.697 56.3986 197.196 56.5553 197.544 56.973C197.893 57.3908 198.093 57.913 198.093 58.5397Z" fill="black"/>
<path fill-rule="evenodd" clip-rule="evenodd" d="M200.884 53.0039C200.884 53.265 200.984 53.4739 201.183 53.6828C201.333 53.8917 201.582 53.9961 201.881 54.0484C202.18 54.0484 202.38 53.9439 202.579 53.735C202.778 53.5262 202.878 53.265 202.878 53.0039C202.878 52.7428 202.778 52.4817 202.579 52.3251C202.38 52.1684 202.18 52.064 201.881 52.064C201.582 52.064 201.383 52.1162 201.183 52.3251C200.984 52.4817 200.884 52.7428 200.884 53.0039ZM202.629 55.0927H201.084V61.9337H202.629V55.0927Z" fill="black"/>
<path fill-rule="evenodd" clip-rule="evenodd" d="M211.053 61.9339V52.4297H209.458V55.9285C209.209 55.6152 208.91 55.4063 208.561 55.2496C208.212 55.093 207.813 55.0407 207.364 55.0407C206.716 55.0407 206.168 55.1452 205.67 55.4585C205.171 55.7718 204.772 56.1896 204.473 56.7118C204.174 57.234 204.025 57.8607 204.025 58.5395C204.025 59.2184 204.174 59.8451 204.473 60.3673C204.772 60.9417 205.171 61.3072 205.67 61.6206C206.168 61.8817 206.716 62.0383 207.364 62.0383C207.813 62.0383 208.262 61.9339 208.611 61.7772C209.009 61.6206 209.308 61.3595 209.558 61.0461V61.9339H211.053ZM209.259 59.6885C209.109 60.0018 208.86 60.263 208.561 60.4196C208.262 60.5763 207.963 60.6807 207.564 60.6807C207.215 60.6807 206.866 60.5763 206.567 60.4196C206.268 60.263 206.018 60.0018 205.869 59.6885C205.719 59.323 205.62 58.9574 205.62 58.5397C205.62 58.0697 205.719 57.7041 205.869 57.3908C206.018 57.0775 206.268 56.8164 206.567 56.6597C206.866 56.503 207.215 56.3986 207.564 56.3986C207.913 56.3986 208.262 56.503 208.561 56.6597C208.86 56.8164 209.109 57.0775 209.259 57.3908C209.408 57.7564 209.508 58.1219 209.508 58.5397C209.508 59.0097 209.408 59.3752 209.259 59.6885Z" fill="black"/>
<path d="M213.496 61.8297C212.997 61.673 212.598 61.5164 212.299 61.2553L212.897 60.0542C213.197 60.2631 213.545 60.4197 213.944 60.5242C214.343 60.6286 214.742 60.7331 215.141 60.7331C216.038 60.7331 216.536 60.472 216.536 59.9498C216.536 59.6887 216.437 59.532 216.187 59.4275C215.938 59.3231 215.589 59.2187 215.091 59.1664C214.542 59.062 214.094 58.9576 213.795 58.8531C213.446 58.7487 213.147 58.5398 212.897 58.2787C212.648 58.0176 212.499 57.5998 212.499 57.1298C212.499 56.5032 212.748 55.981 213.296 55.5632C213.795 55.1977 214.493 54.9888 215.39 54.9888C215.838 54.9888 216.287 55.041 216.736 55.1454C217.184 55.2499 217.533 55.4065 217.832 55.5632L217.234 56.7643C216.686 56.3987 216.038 56.2421 215.34 56.2421C214.891 56.2421 214.542 56.2943 214.293 56.451C214.044 56.6076 213.944 56.7643 213.944 57.0254C213.944 57.2865 214.044 57.4432 214.343 57.5476C214.592 57.652 214.991 57.7565 215.49 57.8609C215.988 57.9654 216.437 58.0698 216.786 58.1742C217.134 58.2787 217.384 58.4876 217.633 58.7487C217.882 59.0098 217.982 59.3753 217.982 59.8975C217.982 60.5242 217.733 61.0464 217.184 61.4642C216.636 61.8297 215.938 62.0386 214.991 62.0386C214.542 62.0386 214.044 61.9864 213.496 61.8297Z" fill="black"/>
</svg>
