<svg width="296" height="71" viewBox="0 0 296 71" fill="none" xmlns="http://www.w3.org/2000/svg">
<path d="M10.2888 54.4858L0 41.575H36.2368C43.7555 41.575 49.9175 35.1789 49.9175 27.2429C49.9175 19.3661 43.8121 12.9108 36.2368 12.9108H10.2888L0 0H36.2368C50.5393 0 62.1849 12.2001 62.1849 27.1837C62.1849 42.1673 50.5393 54.3674 36.2368 54.3674H10.2888V54.4858Z" fill="white"/>
<path d="M10.2888 33.7577L0 20.8469H28.7746L39.0634 33.7577H10.2888Z" fill="white"/>
<rect x="253.602" y="7.52124" width="6.89687" height="41.9304" fill="white"/>
<path fill-rule="evenodd" clip-rule="evenodd" d="M131.21 18.1814C134.941 18.1814 138.05 19.7212 140.312 22.0309V18.9513H147.209V49.5107H140.312V46.4311C138.05 48.7408 134.998 50.2806 131.21 50.2806C122.787 50.2806 116.568 43.1146 116.568 34.231C116.568 25.3475 122.73 18.1814 131.21 18.1814ZM123.465 34.1722C123.465 39.2062 127.253 43.2927 131.888 43.2927C136.524 43.2927 140.312 39.2062 140.312 34.1722C140.312 29.1382 136.524 25.0518 131.888 25.0518C127.253 25.0518 123.465 29.1382 123.465 34.1722Z" fill="white"/>
<rect x="240.373" y="18.9517" width="6.89685" height="30.5594" fill="white"/>
<path fill-rule="evenodd" clip-rule="evenodd" d="M187.176 18.1814C190.907 18.1814 194.017 19.7212 196.278 22.0309V18.9513H203.175V49.5107H196.278V46.4311C194.017 48.7408 190.964 50.2806 187.176 50.2806C178.753 50.2806 172.535 43.1146 172.535 34.231C172.535 25.3475 178.697 18.1814 187.176 18.1814ZM179.431 34.1722C179.431 39.2062 183.219 43.2927 187.855 43.2927C192.49 43.2927 196.278 39.2062 196.278 34.1722C196.278 29.1382 192.49 25.0518 187.855 25.0518C183.219 25.0518 179.431 29.1382 179.431 34.1722Z" fill="white"/>
<path d="M163.151 11.0752L150.883 21.8539V25.9996H156.254V39.7987C156.254 50.8735 165.355 50.3997 170.161 49.5114V42.4638C167.164 43.056 163.151 44.122 163.151 38.9696V26.0588H170.161V19.0112H163.151V11.0752Z" fill="white"/>
<path d="M280.68 18.1223C272.2 18.1223 265.36 25.2884 265.36 34.1719C265.36 43.0555 272.2 50.2215 280.68 50.2215C284.694 50.2215 288.368 48.5633 291.138 45.8982L286.842 40.5089C285.259 42.1671 283.111 43.2332 280.68 43.2332C275.875 43.2332 271.974 39.1467 271.974 34.1127C271.974 29.0787 275.875 24.9923 280.68 24.9923C284.524 24.9923 287.803 27.5981 288.934 31.27H276.27L280.963 37.1331H288.877H292.834H295.717C295.887 36.1263 296 35.1195 296 34.0535C296 25.3476 289.16 18.1223 280.68 18.1223Z" fill="white"/>
<path d="M243.821 6.75122C241.503 6.75122 239.638 8.7056 239.638 11.1338C239.638 13.5619 241.503 15.5163 243.821 15.5163C246.139 15.5163 248.004 13.5619 248.004 11.1338C248.004 8.7056 246.139 6.75122 243.821 6.75122Z" fill="white"/>
<path fill-rule="evenodd" clip-rule="evenodd" d="M78.5791 7.52124H94.0123C104.697 7.52124 113.403 16.6417 113.403 28.4864C113.403 40.3312 104.697 49.4516 94.0123 49.4516H78.5791V7.52124ZM85.8151 42.2261H93.6165C100.57 42.2261 106.223 36.4814 106.28 28.5454C106.28 20.5502 100.626 14.8055 93.6165 14.8055H85.8151V42.2261Z" fill="white"/>
<path d="M203.231 14.7465H216.686V49.4516H223.922V14.7465H237.377V7.52124H203.231V14.7465Z" fill="white"/>
<path fill-rule="evenodd" clip-rule="evenodd" d="M82.819 60.0525H78.5791V70.239H82.819C83.8366 70.239 84.7976 70.0021 85.589 69.5875C86.3805 69.1729 87.0023 68.5807 87.4546 67.8108C87.9068 67.0409 88.133 66.1525 88.133 65.1457C88.133 64.1389 87.9068 63.2506 87.4546 62.4807C87.0023 61.7108 86.3805 61.1185 85.589 60.704C84.7976 60.2894 83.8366 60.0525 82.819 60.0525ZM84.5714 68.2258C84.0626 68.5219 83.4408 68.6404 82.7059 68.6404H80.3315V61.652H82.7059C83.3842 61.652 84.0061 61.7704 84.5714 62.0665C85.0802 62.3626 85.5324 62.7772 85.8151 63.3102C86.0977 63.8432 86.2673 64.4355 86.2673 65.1462C86.2673 65.8568 86.0977 66.4491 85.8151 66.9821C85.5324 67.5151 85.1367 67.9297 84.5714 68.2258Z" fill="white"/>
<path fill-rule="evenodd" clip-rule="evenodd" d="M96.0471 65.7384C96.0471 64.6132 95.7644 63.7841 95.1991 63.251C94.6338 62.6588 93.7858 62.4219 92.7117 62.5404C92.0899 62.5404 91.5246 62.5996 90.9592 62.7772C90.3939 62.9549 89.9417 63.1918 89.546 63.4879L90.2243 64.7909C90.507 64.4947 90.8462 64.3171 91.2419 64.1986C91.6376 64.0802 92.0899 64.0209 92.4856 64.0209C93.0509 64.0209 93.5597 64.1394 93.8424 64.4355C94.125 64.7316 94.2946 65.1462 94.2946 65.6792V65.7977H92.3725C91.355 65.7977 90.5635 66.0345 90.0547 66.4491C89.546 66.8637 89.3198 67.3967 89.3198 68.1074C89.3198 68.5219 89.4329 68.9365 89.659 69.2919C89.8851 69.6472 90.2243 69.9433 90.6201 70.121C91.0723 70.2987 91.5246 70.4171 92.0899 70.4171C92.6552 70.4171 93.1075 70.2987 93.5032 70.121C93.8989 69.9433 94.1816 69.7064 94.4077 69.3511V70.2987H96.0471V65.7384ZM94.3511 67.8704C94.1815 68.2258 93.9554 68.5219 93.6162 68.7588C93.277 68.9365 92.8813 69.0549 92.429 69.0549C92.0333 69.0549 91.6376 68.9365 91.4115 68.7588C91.1288 68.5811 91.0157 68.3442 91.0157 67.9889C91.0157 67.3374 91.5245 66.9821 92.5421 66.9821H94.3511V67.8704Z" fill="white"/>
<path d="M98.8172 70.1209C98.2519 69.9432 97.7996 69.7655 97.4604 69.4694L98.1388 68.1073C98.478 68.3441 98.8737 68.5218 99.326 68.6403C99.7783 68.7587 100.231 68.8772 100.683 68.8772C101.7 68.8772 102.266 68.581 102.266 67.9888C102.266 67.6927 102.153 67.515 101.87 67.3966C101.587 67.2781 101.192 67.1597 100.626 67.1004C100.004 66.982 99.4956 66.8636 99.1564 66.7451C98.7607 66.6267 98.4215 66.3898 98.1388 66.0936C97.8562 65.7975 97.6866 65.3237 97.6866 64.7907C97.6866 64.08 97.9692 63.4878 98.5911 63.014C99.1564 62.5994 99.9478 62.3625 100.965 62.3625C101.474 62.3625 101.983 62.4218 102.492 62.5402C103.001 62.6587 103.396 62.8363 103.735 63.014L103.057 64.3762C102.435 63.9616 101.7 63.7839 100.909 63.7839C100.4 63.7839 100.004 63.8431 99.7217 64.0208C99.4391 64.1985 99.326 64.3762 99.326 64.6723C99.326 64.9684 99.4391 65.1461 99.7783 65.2645C100.061 65.383 100.513 65.5014 101.078 65.6199C101.644 65.7383 102.153 65.8567 102.548 65.9752C102.944 66.0936 103.227 66.3305 103.509 66.6267C103.792 66.9228 103.905 67.3373 103.905 67.9296C103.905 68.6403 103.622 69.2325 103.001 69.7063C102.379 70.1209 101.587 70.3578 100.513 70.3578C100.004 70.3578 99.3825 70.2985 98.8172 70.1209Z" fill="white"/>
<path d="M111.933 63.2509C112.498 63.8431 112.781 64.6723 112.781 65.7975V70.2393H111.028V66.0344C111.028 65.383 110.859 64.8499 110.576 64.4946C110.293 64.1393 109.841 63.9616 109.276 63.9616C108.654 63.9616 108.145 64.1393 107.749 64.5538C107.354 64.9684 107.184 65.5606 107.184 66.2713V70.1801H105.432V59.4014H107.184V63.3101C107.467 63.014 107.806 62.7179 108.258 62.5994C108.654 62.4218 109.163 62.3626 109.672 62.3626C110.633 62.4218 111.367 62.7179 111.933 63.2509Z" fill="white"/>
<path fill-rule="evenodd" clip-rule="evenodd" d="M122.391 64.3168C122.052 63.6653 121.6 63.2508 121.034 62.8954C120.469 62.5401 119.791 62.4216 119.112 62.4216C118.66 62.4216 118.208 62.4809 117.812 62.6585C117.36 62.8362 117.02 63.0731 116.738 63.4284V59.4604H114.985V70.2392H116.625V69.2324C116.907 69.5877 117.303 69.8838 117.699 70.0615C118.151 70.2392 118.603 70.3576 119.112 70.3576C119.791 70.3576 120.469 70.2392 121.034 69.8838C121.6 69.5285 122.052 69.0547 122.391 68.4625C122.73 67.8702 122.9 67.1595 122.9 66.3896C122.9 65.6197 122.73 64.909 122.391 64.3168ZM121.091 66.3896C121.091 67.1595 120.865 67.6925 120.469 68.1663C120.073 68.5809 119.564 68.8178 118.886 68.8178C118.49 68.8178 118.095 68.6993 117.755 68.5217C117.416 68.344 117.134 68.0479 116.964 67.6925C116.794 67.278 116.681 66.8634 116.681 66.3896C116.681 65.8566 116.794 65.442 116.964 65.0867C117.134 64.7313 117.416 64.4352 117.755 64.2576C118.095 64.0799 118.49 63.9614 118.886 63.9614C119.508 63.9614 120.073 64.1391 120.469 64.6129C120.865 65.0867 121.091 65.6789 121.091 66.3896Z" fill="white"/>
<path fill-rule="evenodd" clip-rule="evenodd" d="M124.426 68.4626C124.765 69.0548 125.218 69.5286 125.84 69.884C126.405 70.1801 127.083 70.3577 127.875 70.417C128.61 70.417 129.288 70.2393 129.91 69.884C130.532 69.5286 130.984 69.0548 131.323 68.4626C131.662 67.8703 131.832 67.1597 131.832 66.3898C131.832 65.6199 131.662 64.9092 131.323 64.3169C130.984 63.7247 130.532 63.2509 129.91 62.8956C129.288 62.5402 128.61 62.3625 127.875 62.3625C127.14 62.3625 126.461 62.5402 125.84 62.8956C125.218 63.2509 124.765 63.7247 124.426 64.3169C124.087 64.9092 123.917 65.6199 123.917 66.3898C123.917 67.1597 124.087 67.8703 124.426 68.4626ZM130.079 66.3894C130.079 67.1593 129.853 67.6923 129.458 68.1661C129.005 68.5806 128.497 68.8175 127.875 68.8175C127.253 68.8175 126.688 68.6399 126.292 68.1661C125.896 67.6923 125.67 67.1001 125.67 66.3894C125.67 65.6195 125.896 65.0864 126.292 64.6127C126.688 64.1981 127.253 63.9612 127.875 63.9612C128.497 63.9612 129.062 64.1389 129.458 64.6127C129.853 65.0864 130.079 65.6787 130.079 66.3894Z" fill="white"/>
<path fill-rule="evenodd" clip-rule="evenodd" d="M139.577 65.7384C139.577 64.6132 139.294 63.7841 138.729 63.251C138.164 62.6588 137.316 62.4219 136.242 62.5404C135.62 62.5404 135.054 62.5996 134.489 62.7772C133.924 62.9549 133.471 63.1918 133.076 63.4879L133.754 64.7909C134.037 64.4947 134.376 64.3171 134.772 64.1986C135.167 64.0802 135.62 64.0209 136.015 64.0209C136.581 64.0209 137.089 64.1394 137.372 64.4355C137.655 64.7316 137.824 65.1462 137.824 65.6792V65.7977H135.902C134.885 65.7977 134.093 66.0345 133.585 66.4491C133.076 66.8637 132.85 67.3967 132.85 68.1074C132.85 68.5219 132.963 68.9365 133.189 69.2919C133.415 69.6472 133.754 69.9433 134.15 70.121C134.602 70.2987 135.054 70.4171 135.62 70.4171C136.185 70.4171 136.637 70.2987 137.033 70.121C137.429 69.9433 137.711 69.7064 137.937 69.3511V70.2987H139.577V65.7384ZM137.881 67.8704C137.711 68.2258 137.485 68.5219 137.146 68.7588C136.807 68.9365 136.411 69.0549 135.959 69.0549C135.563 69.0549 135.167 68.9365 134.941 68.7588C134.659 68.5811 134.545 68.3442 134.545 67.9889C134.545 67.3374 135.054 66.9821 136.072 66.9821H137.881V67.8704Z" fill="white"/>
<path d="M146.134 62.4221V64.1396C145.965 64.1396 145.852 64.0804 145.739 64.0804C145.06 64.0804 144.551 64.2581 144.156 64.6726C143.76 65.0872 143.59 65.6794 143.59 66.4493V70.2396H141.838V62.4813H143.477V63.6066C143.986 62.8367 144.834 62.4221 146.134 62.4221Z" fill="white"/>
<path fill-rule="evenodd" clip-rule="evenodd" d="M154.784 70.2392V59.4604H152.975V63.4284C152.692 63.0731 152.353 62.8362 151.957 62.6585C151.562 62.4809 151.109 62.4216 150.601 62.4216C149.866 62.4216 149.244 62.5401 148.679 62.8954C148.113 63.2508 147.661 63.7246 147.322 64.3168C146.983 64.909 146.813 65.6197 146.813 66.3896C146.813 67.1595 146.983 67.8702 147.322 68.4625C147.661 69.1139 148.113 69.5285 148.679 69.8838C149.244 70.1799 149.866 70.3576 150.601 70.3576C151.109 70.3576 151.618 70.2392 152.014 70.0615C152.466 69.8838 152.805 69.5877 153.088 69.2324V70.2392H154.784ZM152.805 67.6925C152.636 68.0479 152.353 68.344 152.014 68.5217C151.675 68.6993 151.279 68.8178 150.883 68.8178C150.487 68.8178 150.092 68.6993 149.753 68.5217C149.413 68.344 149.131 68.0479 148.961 67.6925C148.792 67.278 148.678 66.8634 148.678 66.3896C148.678 65.8566 148.792 65.442 148.961 65.0867C149.131 64.7313 149.413 64.4352 149.753 64.2576C150.092 64.0799 150.487 63.9614 150.883 63.9614C151.279 63.9614 151.675 64.0799 152.014 64.2576C152.353 64.4352 152.636 64.7313 152.805 65.0867C152.975 65.5013 153.088 65.9158 153.088 66.3896C153.088 66.9226 152.975 67.3372 152.805 67.6925Z" fill="white"/>
<path d="M157.611 70.1209C157.045 69.9432 156.593 69.7655 156.254 69.4694L156.932 68.1073C157.271 68.3441 157.667 68.5218 158.119 68.6403C158.572 68.7587 159.024 68.8772 159.476 68.8772C160.494 68.8772 161.059 68.581 161.059 67.9888C161.059 67.6927 160.946 67.515 160.663 67.3966C160.381 67.2781 159.985 67.1597 159.42 67.1004C158.798 66.982 158.289 66.8636 157.95 66.7451C157.554 66.6267 157.215 66.3898 156.932 66.0936C156.65 65.7975 156.48 65.3237 156.48 64.7907C156.48 64.08 156.763 63.4878 157.385 63.014C157.95 62.5994 158.741 62.3625 159.759 62.3625C160.268 62.3625 160.776 62.4218 161.285 62.5402C161.794 62.6587 162.19 62.8363 162.529 63.014L161.851 64.3762C161.229 63.9616 160.494 63.7839 159.702 63.7839C159.194 63.7839 158.798 63.8431 158.515 64.0208C158.233 64.1985 158.119 64.3762 158.119 64.6723C158.119 64.9684 158.233 65.1461 158.572 65.2645C158.854 65.383 159.307 65.5014 159.872 65.6199C160.437 65.7383 160.946 65.8567 161.342 65.9752C161.737 66.0936 162.02 66.3305 162.303 66.6267C162.585 66.9228 162.699 67.3373 162.699 67.9296C162.699 68.6403 162.416 69.2325 161.794 69.7063C161.172 70.1209 160.381 70.3578 159.307 70.3578C158.741 70.3578 158.176 70.2985 157.611 70.1209Z" fill="white"/>
<path fill-rule="evenodd" clip-rule="evenodd" d="M167.956 68.4626C168.295 69.0548 168.747 69.5286 169.369 69.884C169.934 70.1801 170.613 70.3577 171.404 70.417C172.139 70.417 172.817 70.2393 173.439 69.884C174.061 69.5286 174.513 69.0548 174.852 68.4626C175.192 67.8703 175.361 67.1597 175.361 66.3898C175.361 65.6199 175.192 64.9092 174.852 64.3169C174.513 63.7247 174.061 63.2509 173.439 62.8956C172.817 62.5402 172.139 62.3625 171.404 62.3625C170.669 62.3625 169.991 62.5402 169.369 62.8956C168.747 63.2509 168.295 63.7247 167.956 64.3169C167.616 64.9092 167.447 65.6199 167.447 66.3898C167.447 67.1597 167.616 67.8703 167.956 68.4626ZM173.609 66.3894C173.609 67.1593 173.383 67.6923 172.987 68.1661C172.535 68.5806 172.026 68.8175 171.404 68.8175C170.782 68.8175 170.217 68.6399 169.821 68.1661C169.425 67.6923 169.199 67.1001 169.199 66.3894C169.199 65.6195 169.425 65.0864 169.821 64.6127C170.217 64.1981 170.782 63.9612 171.404 63.9612C172.026 63.9612 172.591 64.1389 172.987 64.6127C173.383 65.0864 173.609 65.6787 173.609 66.3894Z" fill="white"/>
<path d="M183.502 63.2513C184.067 63.8435 184.35 64.6727 184.35 65.7979V70.2397H182.597V66.0348C182.597 65.3833 182.428 64.8503 182.145 64.495C181.862 64.1396 181.41 63.962 180.845 63.962C180.223 63.962 179.714 64.1396 179.318 64.5542C178.923 64.9688 178.753 65.561 178.753 66.2717V70.1805H177V62.4222H178.64V63.429C178.923 63.0736 179.262 62.7775 179.714 62.5998C180.166 62.4222 180.619 62.3037 181.184 62.3037C182.145 62.4222 182.936 62.7183 183.502 63.2513Z" fill="white"/>
<path d="M191.36 70.0611C190.681 69.8242 190.116 69.5281 189.72 69.1727L190.342 67.6921C190.738 68.0475 191.247 68.2844 191.812 68.5213C192.377 68.7582 192.999 68.8174 193.564 68.8174C194.299 68.8174 194.808 68.6989 195.204 68.4621C195.543 68.2252 195.713 67.8698 195.713 67.5145C195.713 67.2184 195.6 66.9815 195.43 66.8038C195.204 66.6261 194.978 66.4484 194.695 66.3892C194.412 66.2708 193.96 66.1523 193.451 66.0339C192.716 65.8562 192.095 65.6785 191.642 65.5009C191.19 65.3232 190.794 65.0271 190.455 64.6125C190.116 64.1979 189.946 63.6649 189.946 63.0135C189.946 62.4805 190.116 61.9474 190.399 61.4737C190.681 60.9999 191.134 60.6445 191.699 60.3484C192.264 60.0523 192.999 59.9338 193.847 59.9338C194.412 59.9338 195.034 59.9931 195.6 60.1707C196.165 60.3484 196.674 60.5261 197.069 60.8222L196.504 62.3028C196.052 62.0659 195.656 61.829 195.147 61.7105C194.695 61.5921 194.243 61.5329 193.79 61.5329C193.056 61.5329 192.547 61.6513 192.208 61.8882C191.868 62.1251 191.699 62.4805 191.699 62.895C191.699 63.1911 191.812 63.428 191.981 63.6057C192.208 63.7834 192.434 63.9611 192.716 64.0203C192.999 64.1387 193.451 64.2572 193.96 64.3756C194.695 64.5533 195.26 64.731 195.713 64.9086C196.165 65.0863 196.561 65.3824 196.9 65.797C197.239 66.2116 197.409 66.6853 197.409 67.396C197.409 67.9883 197.239 68.4621 196.956 68.9358C196.674 69.4096 196.221 69.765 195.656 70.0019C195.091 70.298 194.356 70.4164 193.508 70.4164C192.829 70.4164 192.095 70.298 191.36 70.0611Z" fill="white"/>
<path d="M203.571 69.8247C203.344 70.0023 203.118 70.1208 202.836 70.2392C202.553 70.2984 202.214 70.3577 201.931 70.3577C201.14 70.3577 200.461 70.1208 200.066 69.7062C199.613 69.2324 199.387 68.581 199.387 67.7518V64.0207H198.144V62.5401H199.387V60.7634H201.14V62.5401H203.118V64.0207H201.14V67.6926C201.14 68.0479 201.253 68.3441 201.422 68.581C201.592 68.7586 201.875 68.8771 202.214 68.8771C202.61 68.8771 202.949 68.7586 203.175 68.581L203.571 69.8247Z" fill="white"/>
<path fill-rule="evenodd" clip-rule="evenodd" d="M205.888 66.9824H211.711C211.711 66.7455 211.711 66.5678 211.768 66.3309C211.768 65.5018 211.655 64.7911 211.315 64.1989C210.976 63.6066 210.524 63.1328 209.959 62.7775C209.393 62.4814 208.771 62.3037 208.037 62.3037C207.302 62.3037 206.623 62.4814 206.058 62.8367C205.493 63.1921 205.04 63.6659 204.701 64.2581C204.362 64.9096 204.192 65.561 204.192 66.3309C204.192 67.1008 204.362 67.8115 204.701 68.4038C205.04 68.996 205.493 69.4698 206.114 69.8251C206.736 70.1805 207.471 70.3581 208.263 70.3581C208.885 70.3581 209.45 70.2989 209.959 70.062C210.467 69.8251 210.863 69.529 211.202 69.1144L210.298 67.9892C209.732 68.5222 209.054 68.8183 208.263 68.8183C207.641 68.8183 207.132 68.6999 206.68 68.3445C206.284 67.9892 206.001 67.5746 205.888 66.9824ZM205.888 65.7386C205.945 65.2056 206.171 64.7318 206.567 64.3764C206.962 64.0211 207.415 63.8434 207.98 63.8434C208.545 63.8434 208.998 64.0211 209.393 64.3764C209.789 64.7318 210.015 65.2056 210.072 65.7386H205.888Z" fill="white"/>
<path d="M217.704 62.4221V64.1396C217.534 64.1396 217.421 64.0804 217.308 64.0804C216.63 64.0804 216.121 64.2581 215.725 64.6726C215.329 65.0872 215.16 65.6794 215.16 66.4493V70.2396H213.407V62.4813H215.047V63.6066C215.555 62.8367 216.46 62.4221 217.704 62.4221Z" fill="white"/>
<path fill-rule="evenodd" clip-rule="evenodd" d="M219.004 68.4626C219.343 69.0548 219.795 69.5286 220.417 69.884C220.983 70.1801 221.661 70.3577 222.452 70.417C223.187 70.417 223.866 70.2393 224.487 69.884C225.109 69.5286 225.562 69.0548 225.901 68.4626C226.24 67.8703 226.41 67.1597 226.41 66.3898C226.41 65.6199 226.24 64.9092 225.901 64.3169C225.562 63.7247 225.109 63.2509 224.487 62.8956C223.866 62.5402 223.187 62.3625 222.452 62.3625C221.717 62.3625 221.039 62.5402 220.417 62.8956C219.795 63.2509 219.343 63.7247 219.004 64.3169C218.665 64.9092 218.495 65.6199 218.495 66.3898C218.495 67.1597 218.665 67.8703 219.004 68.4626ZM224.657 66.3894C224.657 67.1593 224.431 67.6923 224.035 68.1661C223.583 68.5806 223.074 68.8175 222.452 68.8175C221.83 68.8175 221.265 68.6399 220.869 68.1661C220.474 67.6923 220.248 67.1001 220.248 66.3894C220.248 65.6195 220.474 65.0864 220.869 64.6127C221.265 64.1981 221.83 63.9612 222.452 63.9612C223.074 63.9612 223.639 64.1389 224.035 64.6127C224.431 65.0864 224.657 65.6787 224.657 66.3894Z" fill="white"/>
<path fill-rule="evenodd" clip-rule="evenodd" d="M227.823 60.1117C227.823 60.4078 227.936 60.6447 228.162 60.8816C228.332 61.1185 228.614 61.2369 228.953 61.2962C229.293 61.2962 229.519 61.1777 229.745 60.9408C229.971 60.7039 230.084 60.4078 230.084 60.1117C230.084 59.8156 229.971 59.5194 229.745 59.3418C229.519 59.1641 229.293 59.0457 228.953 59.0457C228.614 59.0457 228.388 59.1049 228.162 59.3418C227.936 59.5194 227.823 59.8156 227.823 60.1117ZM229.801 62.4809H228.049V70.2392H229.801V62.4809Z" fill="white"/>
<path fill-rule="evenodd" clip-rule="evenodd" d="M239.355 70.2392V59.4604H237.546V63.4284C237.264 63.0731 236.924 62.8362 236.529 62.6585C236.133 62.4809 235.681 62.4216 235.172 62.4216C234.437 62.4216 233.815 62.5401 233.25 62.8954C232.685 63.2508 232.232 63.7246 231.893 64.3168C231.554 64.909 231.384 65.6197 231.384 66.3896C231.384 67.1595 231.554 67.8702 231.893 68.4625C232.232 69.1139 232.685 69.5285 233.25 69.8838C233.815 70.1799 234.437 70.3576 235.172 70.3576C235.681 70.3576 236.189 70.2392 236.585 70.0615C237.037 69.8838 237.377 69.5877 237.659 69.2324V70.2392H239.355ZM237.32 67.6925C237.15 68.0479 236.868 68.344 236.529 68.5217C236.189 68.6993 235.85 68.8178 235.398 68.8178C235.002 68.8178 234.607 68.6993 234.267 68.5217C233.928 68.344 233.645 68.0479 233.476 67.6925C233.306 67.278 233.193 66.8634 233.193 66.3896C233.193 65.8566 233.306 65.442 233.476 65.0867C233.645 64.7313 233.928 64.4352 234.267 64.2576C234.607 64.0799 235.002 63.9614 235.398 63.9614C235.794 63.9614 236.189 64.0799 236.529 64.2576C236.868 64.4352 237.15 64.7313 237.32 65.0867C237.49 65.5013 237.603 65.9158 237.603 66.3896C237.603 66.9226 237.49 67.3372 237.32 67.6925Z" fill="white"/>
<path d="M242.125 70.1209C241.56 69.9432 241.108 69.7655 240.769 69.4694L241.447 68.1073C241.786 68.3441 242.182 68.5218 242.634 68.6403C243.086 68.7587 243.539 68.8772 243.991 68.8772C245.008 68.8772 245.574 68.581 245.574 67.9888C245.574 67.6927 245.461 67.515 245.178 67.3966C244.895 67.2781 244.5 67.1597 243.934 67.1004C243.312 66.982 242.804 66.8636 242.465 66.7451C242.069 66.6267 241.73 66.3898 241.447 66.0936C241.164 65.7975 240.995 65.3237 240.995 64.7907C240.995 64.08 241.277 63.4878 241.899 63.014C242.465 62.5994 243.256 62.3625 244.274 62.3625C244.782 62.3625 245.291 62.4218 245.8 62.5402C246.309 62.6587 246.704 62.8363 247.044 63.014L246.365 64.3762C245.743 63.9616 245.008 63.7839 244.217 63.7839C243.708 63.7839 243.312 63.8431 243.03 64.0208C242.747 64.1985 242.634 64.3762 242.634 64.6723C242.634 64.9684 242.747 65.1461 243.086 65.2645C243.369 65.383 243.821 65.5014 244.387 65.6199C244.952 65.7383 245.461 65.8567 245.856 65.9752C246.252 66.0936 246.535 66.3305 246.817 66.6267C247.1 66.9228 247.213 67.3373 247.213 67.9296C247.213 68.6403 246.931 69.2325 246.309 69.7063C245.687 70.1209 244.895 70.3578 243.821 70.3578C243.312 70.3578 242.747 70.2985 242.125 70.1209Z" fill="white"/>
</svg>
