<svg width="28" height="36" viewBox="0 0 28 36" fill="none" xmlns="http://www.w3.org/2000/svg">
<path d="M12.267 34.8849L12.2672 34.8848L12.259 34.874C10.461 32.5 7.50828 28.4705 5.00712 24.3254C3.75635 22.2526 2.6244 20.1604 1.80657 18.2385C0.984085 16.3057 0.5 14.5919 0.5 13.2612C0.5 6.20405 6.30978 0.5 13.5119 0.5C20.7139 0.5 26.5237 6.20405 26.5237 13.2612C26.5237 14.5822 26.0399 16.2911 25.2172 18.2226C24.3993 20.1429 23.2673 22.2363 22.0165 24.3116C19.5152 28.4615 16.5624 32.5004 14.7647 34.874L14.7646 34.8739L14.7567 34.8849C14.4832 35.2671 14.0027 35.5 13.5119 35.5C13.021 35.5 12.5405 35.2671 12.267 34.8849ZM13.5119 5.19407C9.41719 5.19407 6.06826 8.44254 6.06826 12.512C6.06826 16.585 9.42083 19.7924 13.5119 19.7924C17.6065 19.7924 20.9554 16.5439 20.9554 12.4745C20.9554 8.40152 17.6029 5.19407 13.5119 5.19407Z" stroke="white"/>
</svg>
