<svg width="90" height="53" viewBox="0 0 90 53" fill="none" xmlns="http://www.w3.org/2000/svg">
<g clip-path="url(#clip0_504_4909)">
<path fill-rule="evenodd" clip-rule="evenodd" d="M89.2118 33.8128C89.2118 24.6224 82.0908 16.2869 68.3174 16.2869H54.6351V0.03125H42.9694L38.2782 8.65926L33.3689 0.03125H21.7043V19.1877C19.3548 16.9626 16.19 15.737 12.7681 15.737C9.28258 15.737 6.05066 17.0166 3.66885 19.3414C2.51143 20.47 1.60533 21.7936 0.974866 23.2721C0.328005 24.7891 0 26.4069 0 28.0811V28.1407C0 31.4673 1.29238 34.5607 3.63878 36.8507C6.00079 39.1558 9.25698 40.4249 12.7437 40.4249C16.2292 40.4249 19.425 39.1449 21.8066 36.8205C22.9638 35.6902 23.8704 34.3677 24.5013 32.8889C25.0407 31.6239 25.3548 30.2869 25.4454 28.9074H31.913V17.0591L38.2784 26.1451L44.4257 17.0591V28.9074H54.4581V52.397H67.9056C81.7762 52.397 89.2381 44.7046 89.2381 34.3331L89.2118 33.8128ZM16.8047 28.1407C16.8047 30.2976 15.4186 32.3141 12.768 32.3141C10.0871 32.3141 8.64125 30.3037 8.64125 28.0811V28.0202H8.6408C8.6408 25.8637 10.0728 23.788 12.7435 23.788C15.4039 23.788 16.8044 25.8312 16.8044 28.0811L16.8047 28.1407ZM69.1099 40.5724C73.2071 40.5724 76.6641 38.6421 76.6641 34.2101V34.1245C76.6641 29.6914 73.2071 27.7571 69.0747 27.7571H66.7466V40.5724H69.1099Z" fill="#EE2D23"/>
</g>
<defs>
<clipPath id="clip0_504_4909">
<rect width="90" height="52.4272" fill="white"/>
</clipPath>
</defs>
</svg>
