<svg width="100" height="19" viewBox="0 0 100 19" fill="none" xmlns="http://www.w3.org/2000/svg">
<g clip-path="url(#clip0_2_211)">
<path d="M10 15.273L16.18 19L14.545 11.971L20 7.244L12.809 6.627L10 0L7.191 6.627L0 7.244L5.455 11.971L3.82 19L10 15.273Z" fill="#FFD882"/>
<path d="M30 15.273L36.18 19L34.545 11.971L40 7.244L32.809 6.627L30 0L27.191 6.627L20 7.244L25.455 11.971L23.82 19L30 15.273Z" fill="#FFD882"/>
<path d="M50 15.273L56.18 19L54.545 11.971L60 7.244L52.809 6.627L50 0L47.191 6.627L40 7.244L45.455 11.971L43.82 19L50 15.273Z" fill="#FFD882"/>
<path d="M70 15.273L76.18 19L74.545 11.971L80 7.244L72.809 6.627L70 0L67.191 6.627L60 7.244L65.455 11.971L63.82 19L70 15.273Z" fill="#FFD882"/>
<path d="M90 15.273L96.18 19L94.545 11.971L100 7.244L92.809 6.627L90 0L87.191 6.627L80 7.244L85.455 11.971L83.82 19L90 15.273Z" fill="#FFD882"/>
</g>
<defs>
<clipPath id="clip0_2_211">
<rect width="100" height="19" fill="white"/>
</clipPath>
</defs>
</svg>
